<svg xmlns="http://www.w3.org/2000/svg" width="663.99" height="116.402" viewBox="0 0 663.99 116.402">
  <path id="sunbar" d="M24.855-84q.984,0,.984.574-.082.574-.984.574t-.9-.656Q23.953-84.164,24.855-84Zm-.246-13.043-.082.328-.246-.246Zm7.875-5.824a9.865,9.865,0,0,1,1.8,0,4.758,4.758,0,0,1,1.23.246.935.935,0,0,1,.492.328q.082.492-.738.656a9.141,9.141,0,0,1-2.707.082q-2.871-.328-3.445-.328l-.328-.41A32.167,32.167,0,0,0,32.484-102.867Zm3.445-4.348a.415.415,0,0,1,.492.164.468.468,0,0,1,.164.492,1.653,1.653,0,0,0-.492.328q-.492-.164-.492-.246Q35.027-107.133,35.93-107.215Zm.82,14.684q.328.738-.574.738H35.6a5.033,5.033,0,0,0-.656-.082.992.992,0,0,1-.984-.492,1.286,1.286,0,0,1,1.066-.41h1.23ZM32.4-87.855l-.082-.328.328.082Zm5.906-9.762a5.868,5.868,0,0,1,3.527-.082.388.388,0,0,1,.328.41.4.4,0,0,1-.246.492,4.194,4.194,0,0,1-2.051.328,8.251,8.251,0,0,1-1.395-.246q-.41-.082-.41-.41A.4.4,0,0,1,38.309-97.617Zm3.445-9.6q.82-.246.82.492.082.328-.328.492-.738.328-.82-.574Zm5.414,4.84q.984,0,.574.492l-.656.082a1.213,1.213,0,0,1-1.066-.328A1.985,1.985,0,0,1,47.168-102.375Zm-.656-4.1-.246.328-.164-.41Zm22.313-.164.164.328H68.66Zm5,9.352v.246l-.328-.164Zm17.063-5,.328.164-.328.164ZM39.211-59.8l.328.164-.328.164Zm3.609,4.594.492.164a2.07,2.07,0,0,1-.246.492,2.542,2.542,0,0,1-.492-.164A1.8,1.8,0,0,0,42.82-55.207Zm16.9-4.676.41.164q0,.41-.082.41-.246.246-.41.082Q58.9-59.719,59.719-59.883Zm6.07.164.328-.246.41.164q.246.656-.574.492Q65.707-59.309,65.789-59.719ZM71.7-56.109l.41.246a1.654,1.654,0,0,1-.492.328l-.41-.328A1.8,1.8,0,0,1,71.7-56.109Zm4.922,5.086a1.8,1.8,0,0,1,.492.246,4.01,4.01,0,0,0-.246.41q-.41-.164-.41-.246Q76.207-50.941,76.617-51.023Zm3.117-9.187.082.328-.328-.082Zm4.594,4.84v.492a2.284,2.284,0,0,1-.492.164.379.379,0,0,1-.246-.41Q83.672-55.945,84.328-55.371Zm4.758,14.109-.246.492-.246-.492Zm4.02-18.375-.41.246-.41-.246Q92.7-60.211,93.105-59.637ZM96.8-51.27a3.428,3.428,0,0,1,.574.164.854.854,0,0,1-.082.492.489.489,0,0,1-.492.082l-.41-.41Zm5.66,5.168a1.2,1.2,0,0,0,.41.246,1.2,1.2,0,0,1-.41.246Q101.719-45.855,102.457-46.1ZM73.664-21.984a.992.992,0,0,1-.984.492.817.817,0,0,1-.9-.574q-.41-.82,1.313-.656Q73.91-22.559,73.664-21.984Zm-8.941,8.777a1.2,1.2,0,0,1-.492.164,2.466,2.466,0,0,1-.082-.41l.492-.082Zm-10.992.164-.082-.41.41-.164a.913.913,0,0,1,.082.41A3.183,3.183,0,0,0,53.73-13.043ZM52.91-21.9v-.41l.328.246ZM43.8-12.633l-.164-.492.492-.246a2.543,2.543,0,0,0,.164.574.63.63,0,0,0-.246.082A.63.63,0,0,1,43.8-12.633Zm-7.383.082a3.715,3.715,0,0,1-1.312.246,6.66,6.66,0,0,1-.82-.082ZM30.6-16.816q-.82.082-.738-.574,0-.164.328-.41.082,0,.574-.082.492.246.492.328Q31.418-16.98,30.6-16.816Zm-1.148-5.578q0-.082.492-.328a1.286,1.286,0,0,1,1.066.41q.328.246-.164.574a1.46,1.46,0,0,1-.984.164Q29.039-21.82,29.449-22.395Zm-2.625,9.762q-.246.164-.492-.164-.082,0-.082-.492l.492-.164Q27.563-13.043,26.824-12.633Zm-5.168-4.758.41-.246v.41Zm14.766,0-.164.492-.328-.328Zm.246-4.922.41.246-.41.164ZM14.93-73.992l-.164-.492h.492ZM6.809-90.152q-.82,3.035-.9,3.609A46.067,46.067,0,0,0,5.66-74.074,33.242,33.242,0,0,0,7.629-66.2a36.093,36.093,0,0,0,13.7,17.391,34.2,34.2,0,0,0,16.16,6.152q4.1.41,7.465.41,9.68-.082,22.559,0,4.348,0,7.465.082a12.52,12.52,0,0,1,2.461.246,4.555,4.555,0,0,1,2.707,1.477q2.461,2.789.82,5.742a5.134,5.134,0,0,1-2.707,2.461,9.8,9.8,0,0,1-2.461.574q-3.445.082-6.234.082H19.523q-1.723,0-5,.164a2.9,2.9,0,0,0-1.148.246,2.195,2.195,0,0,0-1.23,1.395,10.331,10.331,0,0,0-.328,3.035V-5.5q0,.984.082,1.887-.082-.492.082,1.23A2.215,2.215,0,0,0,14.027-.246,32.924,32.924,0,0,0,18.949,0H73.992q2.871,0,6.891-.246a30.651,30.651,0,0,0,6.07-1.23,36.958,36.958,0,0,0,21.9-17.473q4.02-7.875,4.348-14.273,0-.328.082-1.23.082-.82.082-1.23a39.693,39.693,0,0,0-1.559-12.387,37.566,37.566,0,0,0-8.449-14.355,37.3,37.3,0,0,0-14.52-9.516,30.013,30.013,0,0,0-9.762-1.887q-.82,0-2.871-.082H47.168a48.931,48.931,0,0,1-5-.164,5.261,5.261,0,0,1-5-4.758,3.528,3.528,0,0,1-.082-.656,6.1,6.1,0,0,1,1.477-3.363,4.748,4.748,0,0,1,3.363-1.559q2.379-.082,5.578-.082H97.535q.164,0,6.234-.082a4.084,4.084,0,0,0,1.8-.492,1.765,1.765,0,0,0,1.066-1.395,14.365,14.365,0,0,0,.246-2.461v-23.133q0-.492-.082-1.887a.475.475,0,0,1-.082-.328.728.728,0,0,1-.082-.328A1.734,1.734,0,0,0,105-116.156a24.842,24.842,0,0,0-4.348-.246l-42.574.082h-13.7q-2.789,0-5,.082a15.085,15.085,0,0,0-2.543.164,46.672,46.672,0,0,0-10.09,3.117A34.213,34.213,0,0,0,6.809-90.152ZM218.941-78.176h-.492q-.574-.492.164-.656.246-.082.41.246Zm-.574,27.809q-.082.246-.492.328a3.409,3.409,0,0,1-1.23.082,8.28,8.28,0,0,0-3.609.328,7.718,7.718,0,0,1-4.84-.082q-.164-.082-.246-.492a.709.709,0,0,1,.246-.492,1.768,1.768,0,0,1,1.066-.492h8.613Q218.777-51.105,218.367-50.367Zm-4.922,15.176q-6.645.246-8.7.082-1.312-.164-7.547-.082a4.645,4.645,0,0,1-2.379-.574.526.526,0,0,1-.328-.492.552.552,0,0,1,.246-.492,10.854,10.854,0,0,1,3.117-.492q.984.082,1.23.082a22.6,22.6,0,0,0,7.465-.082,12.724,12.724,0,0,1,3.691-.164q1.559,0,4.348.082a4.922,4.922,0,0,1,2.871.984q-1.8.656-2.215.738A5.785,5.785,0,0,1,213.445-35.191Zm-1.312,4.184a5.307,5.307,0,0,1-1.148.574,9.949,9.949,0,0,1-4.922-.082,8.712,8.712,0,0,0-1.23-.082,8.392,8.392,0,0,0-1.23.164,11.553,11.553,0,0,1-4.922.082,6.616,6.616,0,0,0-2.543,0,36.226,36.226,0,0,1-8.039-.082q-4.02-.41-3.117-.328a49.605,49.605,0,0,0-8.121-.41q-.9,0-.738-.656.164-.492,1.066-.492,2.379-.164,1.887-.082.082,0,2.3.082,1.887-.082,2.051-.082-.082,0,7.465-.41a28.822,28.822,0,0,1,4.348,0,42.526,42.526,0,0,0,7.465,0,10.619,10.619,0,0,1,1.887,0q.9.082,3.691.082a17.182,17.182,0,0,1,3.773.328q.41.082.492.328A.817.817,0,0,1,212.133-31.008Zm-1.148,4.676a6.668,6.668,0,0,1-1.8.082q-.984-.164-.82-.738.082-.574.984-.574l.738.082q1.066.082,1.148.082.492.082.492.328Q211.887-26.578,210.984-26.332Zm-9.926.656q-.82.082-.574.082a20.537,20.537,0,0,0-5-.164,9.762,9.762,0,0,1-1.8,0q-1.395-.164-1.887-.164a23.042,23.042,0,0,1-4.922-.246,5.463,5.463,0,0,0-1.887,0,15.124,15.124,0,0,1-3.691.164h-5a3.428,3.428,0,0,1-.574-.164q-.82-.246-.82-.82-.082-.656.738-.82a3.429,3.429,0,0,1,.574-.164,1.254,1.254,0,0,1,.656,0,26.51,26.51,0,0,0,3.445.164q2.3,0,3.363.082a31.152,31.152,0,0,0,5.5.082,55.071,55.071,0,0,1,6.973-.328q1.723.082,4.922.164a1.257,1.257,0,0,1,.984.656.983.983,0,0,1-.164.9A1.515,1.515,0,0,1,201.059-25.676Zm.656,3.445a.747.747,0,0,1-.41.41,4.417,4.417,0,0,1-2.953.246q-.738-.246-.574-.9a1.508,1.508,0,0,1,.984-.738,10.648,10.648,0,0,1,2.379.164Q202.043-22.887,201.715-22.23Zm-.574,5.168a.236.236,0,0,1-.082-.164.63.63,0,0,1-.082-.246l.41-.164a2.285,2.285,0,0,0,.164.492Zm-4.02-.328a.868.868,0,0,1-.738.738q-.164,0-1.641.246A2,2,0,0,1,194-16.57a.976.976,0,0,1-.656-.492.948.948,0,0,1-.164-.9,1.257,1.257,0,0,1,.984-.656,6.383,6.383,0,0,1,2.379.328A.784.784,0,0,1,197.121-17.391Zm-2.051,5.332a.759.759,0,0,1-.492,0q-.656-.328-.328-.9l.41-.246a.733.733,0,0,1,.656.738A.482.482,0,0,1,195.07-12.059Zm-5.414-9.926q-.164.738-1.723.328a.527.527,0,0,1-.41-.41q-.082-.656.738-.656a1.513,1.513,0,0,1,1.148.246Q189.738-22.23,189.656-21.984Zm-1.641,4.84v-.574a2.285,2.285,0,0,1,.492-.164.526.526,0,0,1,.328.492Q188.672-16.406,188.016-17.145Zm.492,4.594a1.083,1.083,0,0,1-.9.82,4.964,4.964,0,0,1-1.8,0,6.276,6.276,0,0,0-1.8-.246,44.616,44.616,0,0,1-8.613-.246q.246.082-4.348-.246-.82-.082-.656-.82.082-.246.492-.328a76.482,76.482,0,0,1,8.613-.246q3.445,0,3.773-.082h1.559q.9-.082,1.477-.082-.164,0,1.23.082A1.028,1.028,0,0,1,188.508-12.551ZM179.32-7.3a5.79,5.79,0,0,1-2.3.492,1.408,1.408,0,0,1-.574-.082,9.36,9.36,0,0,0-2.379-.492,8.373,8.373,0,0,1-2.379-.492.44.44,0,0,1-.328-.492q0-.246.328-.41a2.555,2.555,0,0,1,1.066-.328q.246,0,2.625-.082,3.281.41,4.02.492a.527.527,0,0,1,.41.41Q180.059-7.629,179.32-7.3Zm-16.652-8.941q-5.168.082-5.66.082A9.346,9.346,0,0,1,153.4-16.9a.552.552,0,0,1-.246-.492.787.787,0,0,1,.246-.574,1.909,1.909,0,0,1,.492-.328,4.5,4.5,0,0,1,.574-.246,44.989,44.989,0,0,1,9.926-.328,25.621,25.621,0,0,0,3.117,0,8.826,8.826,0,0,1,4.184.574.526.526,0,0,1,.328.492.787.787,0,0,1-.246.574.8.8,0,0,1-.492.328,15.794,15.794,0,0,1-3.691.574h-4.922Zm.656,3.445a7.121,7.121,0,0,1-1.23.246q-1.641,0-1.559-.656t1.641-.574a8.163,8.163,0,0,1,1.23.246.388.388,0,0,1,.328.41A.522.522,0,0,1,163.324-12.8Zm-8.613,0q.082-.082-.574.164-.246.082-1.066.328.738-.656.9-.82a.75.75,0,0,1,1.066-.082Q155.2-13.043,154.711-12.8Zm-3.937.656Zm-.738-9.762a1.02,1.02,0,0,1,0-.574.668.668,0,0,1,.9-.574,1.84,1.84,0,0,1,1.477.984,3.428,3.428,0,0,0-.164.574,1.314,1.314,0,0,1-1.148.164A1.6,1.6,0,0,1,150.035-21.9Zm7.055-.246v.492q-.574.328-.738-.328,0-.246.41-.328Zm-7.629-3.281a2.221,2.221,0,0,1-1.395-1.148q-.082-.328.328-.738a1.254,1.254,0,0,1,.9-.41l.574-.082h.656q.492,0,3.938.164a8.791,8.791,0,0,0,1.969-.082,5.826,5.826,0,0,1,2.133-.082,1.043,1.043,0,0,1,.9,1.477.868.868,0,0,1-.738.738,3.529,3.529,0,0,1-.656.082,16.169,16.169,0,0,0-4.348-.082q-.492.082-1.8.164a17.679,17.679,0,0,0-1.887.082A.747.747,0,0,1,149.461-25.43Zm-.492,7.957a.883.883,0,0,1-1.066.41.688.688,0,0,1-.492-.984.683.683,0,0,1,.984-.41A.844.844,0,0,1,148.969-17.473ZM138.879-31.5a.508.508,0,0,1-.164-.574q0-.246.41-.41a1.011,1.011,0,0,1,.574-.164,20.323,20.323,0,0,0,3.363.082,26.668,26.668,0,0,1,3.445-.082q.164,0,5.086.164,5.906-.082,6.645-.082a11.809,11.809,0,0,1,3.117.164,1.053,1.053,0,0,1,.738.9.908.908,0,0,1-.574.984,1.881,1.881,0,0,1-.574.164q-3.609.082-7.465.164a6.8,6.8,0,0,1-1.23-.082,16.312,16.312,0,0,0-6.152-.164A12.419,12.419,0,0,1,138.879-31.5Zm4.84,9.68q-.328-.164-.246-.41.246-.738.9-.328l.164.492Q144.293-21.41,143.719-21.82Zm-1.559-5a.759.759,0,0,1-.984.41q-.82-.246-.574-.82a.935.935,0,0,1,.492-.328h.574Q142.488-27.4,142.16-26.824Zm-3.691-13.617a.648.648,0,0,1-.984.082q-.41-.164-.328-.41.164-.738.9-.492l.492.246Q138.469-40.523,138.469-40.441Zm-1.641,5.168q-1.23,0-1.066-1.23.082-1.23,1.23-.9a.9.9,0,0,1,.738.82Q137.977-35.191,136.828-35.273Zm-1.312-15.094a.468.468,0,0,1,.164-.492.552.552,0,0,1,.492-.246q3.773-.246,5.578-.164.246,0,.984.082a6.782,6.782,0,0,0,.9.082,4.49,4.49,0,0,1,3.117,1.559,4.723,4.723,0,0,0-3.445-.164,8.422,8.422,0,0,1-3.117.246q-2.953-.328-4.266-.492A.527.527,0,0,1,135.516-50.367Zm-.328-42.246a.44.44,0,0,1,.492-.328l.328.328-.164.492Q135.023-91.711,135.188-92.613Zm-2.379,37.57q-.328.656-1.066.164a.552.552,0,0,1-.246-.492q-.082-.738.738-.574Q133.055-55.7,132.809-55.043Zm5.414-33.387a1.653,1.653,0,0,1,.492.328,1.8,1.8,0,0,0-.246.492q-.328.164-.492,0Q137.4-88.348,138.223-88.43Zm3.117,18.785v.328l-.328-.246Zm.9,14.273q-.164.41-.246.41-.656.164-.492-.656.082-.246.492-.164Zm-.328-37.488.41.328-.164.492a.4.4,0,0,1-.574,0Q141.012-92.7,141.914-92.859Zm1.313-4.512.082.492-.41-.164Zm2.133,27.891-.492.164v-.41Zm1.723-8.777-.41.246-.328-.328.41-.246Q146.836-78.586,147.082-78.258Zm-3.117-5.332a6.973,6.973,0,0,1,2.789-.164,15.6,15.6,0,0,0,1.641-.164,4.518,4.518,0,0,1,1.559.082,1.465,1.465,0,0,1,.41.41.713.713,0,0,1-.41.984,1.012,1.012,0,0,1-.574.246,30.368,30.368,0,0,0-3.609-.082q-1.477-.41-1.723-.492a.527.527,0,0,1-.41-.41A.388.388,0,0,1,143.965-83.59Zm3.117-8.367a.541.541,0,0,1-.574,0,3.428,3.428,0,0,0-.164-.574,1.8,1.8,0,0,1,.492-.246Q147.738-92.613,147.082-91.957Zm.82,3.527-.082.328-.328-.246Zm-2.215-14.109q1.8.082,1.723.082.82.082.492.656a.589.589,0,0,1-.41.246h-1.8q-.82.082-.9-.492T145.688-102.539Zm5.168,37.57q.246-.082.574-.164,6.48-.328,7.383-.328.984,0,6.152.246a.709.709,0,0,1,.492.246q.574.492.246.984a.661.661,0,0,1-.492.328,10.619,10.619,0,0,1-1.887,0,7.325,7.325,0,0,0-1.8-.082q-.246,0-3.035.164a65.586,65.586,0,0,0-6.809-.164,2.022,2.022,0,0,1-1.148-.328.468.468,0,0,1-.164-.492A.769.769,0,0,1,150.855-64.969ZM151.43-79a.754.754,0,0,1,.984-.492,4.54,4.54,0,0,1,1.148.328q.738.328.492.984a.849.849,0,0,1-.984.492q-1.066-.328-1.148-.328Q151.184-78.34,151.43-79Zm2.461,10.09-.164-.492.492-.164Q154.875-68.906,153.891-68.906Zm-.246-3.937A2.06,2.06,0,0,1,152-73.172q-.574-.41-.082-.984a1.04,1.04,0,0,1,.492-.246q.082,0,1.148-.164a1.1,1.1,0,0,1,.984.492Q155.039-73.09,153.645-72.844Zm-1.312-15.012a1.02,1.02,0,0,1,.738-.82,3.456,3.456,0,0,1,.574-.082q.164,0,1.23-.082a4.543,4.543,0,0,1,1.148.246q.738.164.656.82a.522.522,0,0,1-.328.41,4.158,4.158,0,0,1-3.445.41A.784.784,0,0,1,152.332-87.855Zm2.707-4.43-.082.41-.41-.246Zm-.246-5.66a1.1,1.1,0,0,1,.9.246q.41.41.246.656a.947.947,0,0,1-.984.41q-.82.082-.9-.574T154.793-97.945ZM157.5-83.262l-.41.246a1.2,1.2,0,0,1-.41-.246l.164-.164a.954.954,0,0,0,.246-.164Q157.008-83.59,157.5-83.262Zm-.574-23.625a.415.415,0,0,1,.492.164q.574.656-.41.738a4.942,4.942,0,0,1-1.723-.492Q156.516-106.8,156.926-106.887Zm1.313,27.809.082.328h-.328Zm1.23,9.516a.688.688,0,0,1,.9-.41l.41.246a4.093,4.093,0,0,0-.082.492.743.743,0,0,1-.984.082Q159.387-69.4,159.469-69.562Zm.984-18.7a1.8,1.8,0,0,1,.492-.246.3.3,0,0,1,.246.41q-.082.82-.656.328A4.093,4.093,0,0,0,160.453-88.266Zm2.133,10.09q0-.656.574-.246l-.164.41Q162.586-78.012,162.586-78.176Zm.82,3.609h1.23q.9,0,.82.656-.082.492-.984.574-.082,0-1.148.082-.9,0-.82-.656T163.406-74.566Zm-1.723-23.3a4.553,4.553,0,0,1,4.02.164l.328.492-.41.328a25.14,25.14,0,0,1-2.871.656,3.935,3.935,0,0,1-1.148-.246.747.747,0,0,1-.41-.41A.754.754,0,0,1,161.684-97.863Zm.328-9.516a.379.379,0,0,1,.41.246q.41.574-.328.82t-.82-.492Q161.191-107.461,162.012-107.379Zm1.148,5.25a.937.937,0,0,1,1.066-.41,2.035,2.035,0,0,1,.574.246q.246.738-.656.738a.8.8,0,0,1-.574-.164Q163.078-101.965,163.16-102.129Zm3.938-4.594-.164.328-.164-.41Zm1.23,47q0,.492-.82.656-.492.082-.574.082a9.1,9.1,0,0,0-3.609.246,2.911,2.911,0,0,1-1.23.082q-.656,0-.738-.738a.526.526,0,0,1,.246-.574,2.725,2.725,0,0,1,1.723-.574q.082,0,1.313.246,2.543-.082,2.871-.082Q168.328-60.375,168.328-59.719ZM168-69.562a.791.791,0,0,1,.41-.328q.246-.082,1.641-.41,5.25.41,5,.41a1.011,1.011,0,0,1,.574.164.709.709,0,0,1,.246.492.661.661,0,0,1-.328.492.882.882,0,0,1-.492.164q-.984.082-3.035.328a19.882,19.882,0,0,1-3.035.328A1.817,1.817,0,0,1,168.41-68a.769.769,0,0,1-.492-.41A.849.849,0,0,1,168-69.562Zm4.43-8.859v.328l-.328-.246Zm2.215-23.871a1.5,1.5,0,0,1,1.066.41q.164.328-.246.492-.082.082-.574-.082a3.428,3.428,0,0,1-.574-.164l-.492-.246Q173.824-102.293,174.645-102.293Zm1.969,14.355a.709.709,0,0,1-.246.492.715.715,0,0,1-.984-.164.672.672,0,0,1-.246-.41q0-.574.738-.574A.743.743,0,0,1,176.613-87.937Zm.738,14.027q.246.164.082.492l-.492.246-.328-.328Q176.7-74.4,177.352-73.91Zm.164-18.785q.246-.82.984-.574a12.576,12.576,0,0,1,1.559.656,2.923,2.923,0,0,1-1.477.984.867.867,0,0,1-1.066-.492A1.02,1.02,0,0,1,177.516-92.7Zm1.23-5a.709.709,0,0,1,.492-.246.668.668,0,0,1,.656.738.745.745,0,0,1-.9.328Q178.254-97.207,178.746-97.7Zm1.641,14.438q-.082.738-1.477.574a.934.934,0,0,1-.9-.656q0-.246.41-.41a1.61,1.61,0,0,1,1.641.082Q180.141-83.672,180.387-83.262Zm1.641,9.352q.082,0,.164.41a2.467,2.467,0,0,1-.41.082,1.35,1.35,0,0,0-.082-.41Zm.492,19.031-.41.082.164-.41Zm4.922-.082.328-.328.082.41Zm.082,13.535a2.859,2.859,0,0,1-1.395.492q-.41.082-.492-.164-.41-.656.328-.82A1.559,1.559,0,0,1,187.523-41.426ZM174.48-54.8a.849.849,0,0,1-.984.492q-.738-.328-.41-.984a.713.713,0,0,1,.984-.41Q174.809-55.535,174.48-54.8Zm1.313,13.781a.308.308,0,0,1,0,.492.6.6,0,0,1-.9.164,1.408,1.408,0,0,1-.41-.41q0-.164.328-.41Q175.465-41.508,175.793-41.016Zm1.887-22.969a1.222,1.222,0,0,1-1.066.41,1.5,1.5,0,0,1-1.395-.984q-.246-.656.574-.82a1.974,1.974,0,0,1,1.723.328Q178.172-64.641,177.68-63.984Zm1.066,17.555a2.937,2.937,0,0,1,1.23-.164,11.5,11.5,0,0,1,1.23.082,8.391,8.391,0,0,0,1.23.164,1.513,1.513,0,0,1,1.066.492,1.145,1.145,0,0,1-.984.574q-.082,0-2.461.328-1.066.082-1.23.082a.74.74,0,0,1-.82-.738A.8.8,0,0,1,178.746-46.43Zm-1.477-12.3a3.781,3.781,0,0,1-1.8-.328.4.4,0,0,1-.246-.492.661.661,0,0,1,.328-.492.787.787,0,0,1,.574-.246q.082,0,1.23-.082a.963.963,0,0,1,.984.574Q178.91-58.734,177.27-58.734Zm-6.891,7.957a.73.73,0,0,1-.574.9q-1.23.41-1.477-.574-.164-.656.574-.9a2.411,2.411,0,0,1,.574-.082A1.053,1.053,0,0,1,170.379-50.777ZM168.41-54.3a1.469,1.469,0,0,1-.82-.41.731.731,0,0,1-.246-.82.747.747,0,0,1,.41-.41,1.206,1.206,0,0,1,1.641.574l.082.574A.993.993,0,0,1,168.41-54.3ZM163-50.285q0,.82-.738.656-.82-.164-.574-.9.082-.246.492-.328Q162.914-51.105,163-50.285Zm-.492-4.184a1.123,1.123,0,0,1-1.066.41q-.9-.082-.656-.738a1.078,1.078,0,0,1,.9-.738q.738-.164.9.492A.69.69,0,0,1,162.5-54.469Zm-5,4.1-.492.164q-.656-.656.328-.656Zm-.984-8.531a1.036,1.036,0,0,1-1.066-.41q-.246-.164-.082-.492a.934.934,0,0,1,.9-.656,1.036,1.036,0,0,1,1.066.41l.082.574A.9.9,0,0,1,156.516-58.9Zm-2.133,3.2q.574-.082.82.574.492.984-.9,1.066a.78.78,0,0,1-.9-.492.668.668,0,0,1,.164-.738A1.01,1.01,0,0,1,154.383-55.7Zm-5.086.574a.63.63,0,0,1,.246.082.334.334,0,0,1,.246.082l-.164.492Q148.723-54.3,149.3-55.125Zm3.363,3.938q.82.082.656.738a.8.8,0,0,1-.328.492,2.725,2.725,0,0,1-1.723.574,22.246,22.246,0,0,0-2.461-.082h-1.887q1.887-.984,2.133-1.066A5.809,5.809,0,0,1,152.66-51.187Zm-6.316,11.074q.164-1.641,1.313-1.723,1.066-.082,2.543-.164a.742.742,0,0,1,.656.41,1.07,1.07,0,0,1,.082.9,1.337,1.337,0,0,1-.41.492A7.3,7.3,0,0,1,146.344-40.113Zm1.641,2.871q.574.082.656.9a.8.8,0,0,1-.492.984,2.134,2.134,0,0,1-.656.082q-.164,0-2.543.164-1.559-.082-1.8-.082a1.213,1.213,0,0,1-.9-.656q-.246-.328.082-.82a.98.98,0,0,1,.738-.656q.82-.246,1.148-.328h1.313A16.242,16.242,0,0,1,147.984-37.242Zm18.457-7.383a38.145,38.145,0,0,0-9.352,0,4.994,4.994,0,0,1-1.8,0q-1.641-.164-5.578-.164a42.652,42.652,0,0,0-6.891.246,3.338,3.338,0,0,1-1.8-.328,1.465,1.465,0,0,1-.41-.41q-.246-.656.492-.984a4.54,4.54,0,0,1,1.148-.328,5.394,5.394,0,0,1,1.313-.164q2.625.082,13.7.246,6.645-.082,7.465-.082a20.793,20.793,0,0,1,5.578.328q.41.082.492.328.164.656-.656.9A7.577,7.577,0,0,1,166.441-44.625Zm-.9,3.609a1.1,1.1,0,0,1,.984-.492h1.23q.738.164.492.9a.522.522,0,0,1-.41.328,4.006,4.006,0,0,1-1.148.164Q165.047-40.113,165.539-41.016Zm-.328,15.094a4.919,4.919,0,0,1-2.379-.328.649.649,0,0,1-.328-.984.8.8,0,0,1,.492-.328,12.437,12.437,0,0,1,4.184-.656,3.776,3.776,0,0,1,1.723.492.791.791,0,0,1,.328.41q.246.656-.492.9A11.889,11.889,0,0,1,165.211-25.922Zm-2.051,2.461a6.357,6.357,0,0,1,2.215.574.791.791,0,0,1,.328.41q.246.82-.492.9-.82.164-3.035.41-.082,0-.574-.082a2.116,2.116,0,0,1-1.066-.492.805.805,0,0,1-.246-.82,1.012,1.012,0,0,1,.492-.738A4.037,4.037,0,0,1,163.16-23.461Zm-6.316-18.047a.72.72,0,0,1,.984.328.542.542,0,0,1,.082.492l-.41.328a.831.831,0,0,1-.984-.328Q156.105-41.262,156.844-41.508Zm3.281,3.938a19.162,19.162,0,0,1,4.348.9.639.639,0,0,1,.246.574.709.709,0,0,1-.246.492.709.709,0,0,1-.492.246h-3.691A9.134,9.134,0,0,1,154.3-35.6a1.889,1.889,0,0,1-.492-.246,1.094,1.094,0,0,1-.41-.492q0-.41.246-.41a9.629,9.629,0,0,1,1.23-.164,6.084,6.084,0,0,0,1.23-.246,7.177,7.177,0,0,1,3.609-.41Zm10.5,2.051a1.011,1.011,0,0,1-.574-.164.526.526,0,0,1-.328-.492.468.468,0,0,1,.164-.492.8.8,0,0,1,.492-.328,3.19,3.19,0,0,1,1.8-.246,4.542,4.542,0,0,0,1.887-.082,6.183,6.183,0,0,1,1.8-.164,7.831,7.831,0,0,1,1.559.246,6.836,6.836,0,0,0,1.559.246h.574a23.652,23.652,0,0,1,2.543.246,10.913,10.913,0,0,0,4.922-.164,1.313,1.313,0,0,1,.656,0,3,3,0,0,1,1.148.41,2.491,2.491,0,0,1,.984,1.395q-7.465-.164-9.844.082h-1.23Q173.988-35.437,170.625-35.52Zm-.492,3.363a.888.888,0,0,1,.41-.328,1.4,1.4,0,0,1,1.148,0l.41.41a.691.691,0,0,1-.492.9.947.947,0,0,1-1.066,0A.713.713,0,0,1,170.133-32.156Zm6.809,14.848-.328.41q-.738.164-.738-.574,0-.41.328-.41A.585.585,0,0,1,176.941-17.309Zm6.727-.738.082.492q-.41.656-.984.246a.363.363,0,0,1-.082-.574A.624.624,0,0,1,183.668-18.047Zm-.328-4.1a.957.957,0,0,1-.984.656q-.82.082-5.414.246a18.124,18.124,0,0,0-3.281-.082,11.785,11.785,0,0,1-3.117-.328q-.246-.082-.246-.574a.526.526,0,0,1,.328-.492,3.4,3.4,0,0,1,1.8-.082,5.9,5.9,0,0,0,3.609-.574,2.416,2.416,0,0,1,1.8-.246,12.857,12.857,0,0,0,4.348.328,1.113,1.113,0,0,1,.82.328A.9.9,0,0,1,183.34-22.148Zm.082-37.816q.574-.164,2.379-.574a9.013,9.013,0,0,1,4.84,0q.246.082.246.492a.882.882,0,0,1-.164.492,1.291,1.291,0,0,1-.492.328l-4.1.246q-2.133-.164-2.625-.246-.41-.082-.41-.328A.388.388,0,0,1,183.422-59.965ZM184-78.258l-.41.164q-.82-.492.164-.492Zm.164-14.027-.082.492-.41-.328Zm.328,4.43a.929.929,0,0,1,.82-.82,3.245,3.245,0,0,1,1.723.164,1.653,1.653,0,0,1,.492.328l-.164.492a5.658,5.658,0,0,1-1.641.82,1.205,1.205,0,0,1-.9-.246Q184.406-87.527,184.488-87.855Zm1.8-14.52a2.659,2.659,0,0,1,1.8-.246.743.743,0,0,1,.738.656q0,.656-.738.738a3.758,3.758,0,0,1-1.723-.328.791.791,0,0,1-.328-.41A.3.3,0,0,1,186.293-102.375Zm.738-4.676q.164-.492.9-.574a.817.817,0,0,1,.9.574.9.9,0,0,1-.574.9.747.747,0,0,1-.574-.082Q186.949-106.395,187.031-107.051ZM189-74.074a.619.619,0,0,1,.9-.328.842.842,0,0,1,.656.738.742.742,0,0,1-.41.656.883.883,0,0,1-.82-.082A.649.649,0,0,1,189-74.074Zm.574-4.512q.738.328,0,.492-.492-.328-.41-.328Zm.41-18.7.328.246-.41.164Zm3.035,28.055a1.408,1.408,0,0,1,.41-.41,1.011,1.011,0,0,1,.574-.164h1.313a10.243,10.243,0,0,0,1.066.164q.41.082.492.328a.8.8,0,0,1-.492.984,4.015,4.015,0,0,1-2.953.164A.783.783,0,0,1,193.02-69.234Zm1.395-13.617q-.574.492-.492-.328l.328-.082ZM194-88.594a1.128,1.128,0,0,1,.574.246l.082.574a.684.684,0,0,1-1.066.246.661.661,0,0,1-.328-.492Q193.184-88.758,194-88.594Zm.082-13.863a.69.69,0,0,1,.574-.082q.656.082.492.738a.677.677,0,0,1-.984.246Q193.43-101.965,194.086-102.457Zm1.23,5.5q-.41.164-.41.082-.656-.328.164-.328Zm0-10.008a.817.817,0,0,1,.9-.574q.82-.164.984.41t-.656.9a.869.869,0,0,1-1.066-.246A.468.468,0,0,1,195.316-106.969ZM197.531-79l-.492.082.164-.41Zm1.23,5.5q.082.656-.82.492-.164,0-1.23-.082-.9,0-.984-.574-.082-.656.82-.492a8.71,8.71,0,0,0,1.23.082Q198.6-73.992,198.762-73.5Zm.246-19.441q.738.082.738.656,0,.738-.82.41a.888.888,0,0,1-.41-.328Q198.27-92.859,199.008-92.941Zm.656-9.27q.164-.492.984-.41-.41,0,.656.082a.883.883,0,0,1,.82.656,1.213,1.213,0,0,1-1.066.328h-.574Q199.5-101.555,199.664-102.211Zm1.23,14.027a.379.379,0,0,1,.41-.246q.738,0,.492.656,0,.082-.41.328Q200.73-87.527,200.895-88.184Zm4.1,4.512q.82.082.9.574.164.574-.738.656-.082,0-1.887.082-1.887-.246-2.3-.328a.29.29,0,0,1-.328-.328q-.082-.41.246-.492a6.957,6.957,0,0,1,1.723-.328Q202.453-83.836,205-83.672Zm2.133,10.09q.164.656-.656.656h-1.148a.922.922,0,0,1-1.066-.492q-.328-.82,1.23-.656,1.148.082,1.23.082Q207.129-73.91,207.129-73.582Zm-.164-5a1.792,1.792,0,0,1,1.559-.41q.738.082.9.574.082.246-.246.41a2.3,2.3,0,0,1-1.641.246Q206.8-77.93,206.965-78.586ZM209.016-92.7q.82,0,.164.656l-.41-.246Zm5.906,22.8a.791.791,0,0,1,.41.328.415.415,0,0,1-.164.492,2.766,2.766,0,0,1-1.641.656,31.3,31.3,0,0,0-4.348.246,2.346,2.346,0,0,1-1.23,0,22.292,22.292,0,0,0-4.266-.574.388.388,0,0,1-.41-.328q-.246-.738.492-.82A30.271,30.271,0,0,1,210-70.055a8.9,8.9,0,0,0,2.461,0A8.111,8.111,0,0,1,214.922-69.891ZM210.41-97.535a12.062,12.062,0,0,1,4.184.082q.246,0,.41.328.082.164-.246.41a1.817,1.817,0,0,1-.574.082,4.676,4.676,0,0,1-1.23.082q-.328,0-1.23.082a3.2,3.2,0,0,1-1.148-.164.527.527,0,0,1-.41-.41Q210.164-97.453,210.41-97.535Zm5.332,4.676q.246.328.164.492a1.074,1.074,0,0,1-1.148.492,1.123,1.123,0,0,1-1.066-.41.69.69,0,0,1-.082-.574q.164-.656,1.641-.246A1.04,1.04,0,0,1,215.742-92.859Zm1.395-9.516q.82.41-.082.656l-.328-.41Zm-4.676,14.191q0-.246.41-.41h.574l.492.246q.082.656-.656.82Q212.379-87.445,212.461-88.184Zm1.559,15.012-.492-.246.164-.492.492.246Zm-.41,17.637a2.334,2.334,0,0,1,3.363.246q.328.328.328.492.082.574-.738.738-.082,0-1.23.082a3.4,3.4,0,0,1-1.723-.492Q212.953-55.043,213.609-55.535Zm-4.594-4.184q0-.246.328-.41a1.823,1.823,0,0,1,.574-.246,36.856,36.856,0,0,1,6.152.246q.9.082.738.574-.082.246-.492.328-.656.082-3.445.41-3.2-.082-3.281-.082Q208.852-59.062,209.016-59.719ZM202.125-78.5q0-.164.41-.328l.574-.082.41.246q.082.574-.656.656Q202.043-77.93,202.125-78.5Zm-15.586,8.941q.164-.738,1.641-.246l.328.41q.082.738-.656.738a2.182,2.182,0,0,1-.984-.41A.526.526,0,0,1,186.539-69.562Zm-1.641-4.43h.328l-.164.328ZM205.406-63.9q-6.727.164-6.973.246a9.865,9.865,0,0,1-1.8,0q-.656,0-2.789-.164-1.723-.164-2.789-.164h-5.66q-.984,0-.82-.574.164-.492,1.066-.492.9-.082,1.23-.082-.164,0,1.887.164h.574a2.134,2.134,0,0,1,.656.082,14.919,14.919,0,0,0,3.363-.328,13.147,13.147,0,0,1,3.445-.164,48.291,48.291,0,0,0,6.152.328q.984-.082,8.7-.164a5.872,5.872,0,0,1,1.23.164.747.747,0,0,1,.41.41q.246.656-.574.9a2.484,2.484,0,0,1-1.23.164Q210.656-63.574,205.406-63.9Zm.738,9.105a5.046,5.046,0,0,1,1.887-1.148.691.691,0,0,1,.9.492.888.888,0,0,1-.246.82.9.9,0,0,1-.82.328A13.547,13.547,0,0,1,206.145-54.8Zm-4.02-4.1a1.9,1.9,0,0,1-1.066-.164q-1.23-.574-.164-1.395a1.149,1.149,0,0,1,1.969.328Q203.52-59.062,202.125-58.9Zm1.395,9.105a.388.388,0,0,1-.41-.328q-.082-.574.574-.656l.328.328Q204.176-49.793,203.52-49.793Zm-.164-4.348a.852.852,0,0,1-.574-.328q-.41-.574.246-.9a6.012,6.012,0,0,1,1.066-.492,1.139,1.139,0,0,1,1.148.328l.738.738A4.412,4.412,0,0,1,203.355-54.141Zm-7.219-1.23a.869.869,0,0,1,1.066.246.542.542,0,0,1,.082.492q-.082.574-.82.574-.82.082-.984-.492Q195.4-55.043,196.137-55.371Zm3.2,4.43q.246.082.328.492a.709.709,0,0,1-.246.492,2.274,2.274,0,0,1-1.641.738q-.246,0-2.133-.164a31.446,31.446,0,0,1-3.445-.328q-.246-.082-.328-.492a.787.787,0,0,1,.246-.574.8.8,0,0,1,.492-.328A10.061,10.061,0,0,1,199.336-50.941Zm16.57,9.023a1.559,1.559,0,0,1,.9.738.668.668,0,0,1-.164.738,1.182,1.182,0,0,1-.82.41q-5.414,0-6.891.082H207.7q-2.871-.164-3.035-.164a29.113,29.113,0,0,0-7.465.41,3.13,3.13,0,0,1-2.379-.492q-.656-.41-.246-.984a1.456,1.456,0,0,1,.984-.656,7.718,7.718,0,0,1,2.461.082,9.505,9.505,0,0,0,4.348-.164,6.974,6.974,0,0,1,3.691-.328,42.752,42.752,0,0,1,6.809.246,6.155,6.155,0,0,0,1.477,0A4.518,4.518,0,0,1,215.906-41.918Zm-1.477-3.2a12.194,12.194,0,0,1-4.266.492,40.885,40.885,0,0,0-4.1-.164h-4.02a10.115,10.115,0,0,0-2.543.164,12.168,12.168,0,0,1-3.691-.082q.246.082-4.348-.328-.82-.082-.656-.738.082-.246.492-.328a3.728,3.728,0,0,1,1.23-.328q2.707-.246,4.922-.328h2.543q.246,0,4.512.164,9.352-.246,9.844-.246.656,0,.738.82A.747.747,0,0,1,214.43-45.117Zm3.527-38.309q.246.492-.574.738a7.653,7.653,0,0,1-3.691.082q-.9-.246-.9-.656,0-.574.9-.656.164,0,1.969-.082,1.559.246,1.8.246Q217.875-83.672,217.957-83.426Zm8.121-29.039q0,.082-.164-1.887a1.734,1.734,0,0,0-1.477-1.723q-1.23-.164-5.66-.164H130.02q-.9,0-4.348.164a1.994,1.994,0,0,0-2.051,1.969q-.246,1.559-.246,1.887-.082,3.363-.082,6.234v50.613a108.772,108.772,0,0,0,.738,12.469,16.242,16.242,0,0,0,.41,2.461,55.814,55.814,0,0,0,5.578,14.52A50.978,50.978,0,0,0,154.793-3.855,45.034,45.034,0,0,0,171.117-.082a78.475,78.475,0,0,0,8.121-.082,43.769,43.769,0,0,0,7.957-1.23,51.55,51.55,0,0,0,16.98-7.711,50.171,50.171,0,0,0,19.77-27.316,26.989,26.989,0,0,0,.656-2.789q.492-2.133.656-2.707a31.524,31.524,0,0,0,.82-7.465q.082-7.3.082-8.121v-51.187Q226.16-111.234,226.078-112.465Zm79.16,66.035q.656-.574.738.328l-.492.164Q304.992-46.184,305.238-46.43Zm1.477,23.543q.738.082.82.656,0,.656-.82.656-.738,0-.738-.656T306.715-22.887Zm4.1-13.781a1.986,1.986,0,0,1,1.641-.41.81.81,0,0,1,.738.82q.082.738-1.23.82-1.477.082-1.395-.738A1.04,1.04,0,0,1,310.816-36.668Zm2.461-4.758a.992.992,0,0,1,.984-.492,1.145,1.145,0,0,1,.984.574l.082.574a1.055,1.055,0,0,1-.984.41,1.613,1.613,0,0,1-1.148-.492A.471.471,0,0,1,313.277-41.426Zm1.641-55.945q.082-.246.492-.328a9.926,9.926,0,0,1,1.8,0,1.653,1.653,0,0,1,.492.328q.164.82-2.133.656Q314.672-96.715,314.918-97.371Zm1.641-10.09q.738.164.492.738-.328.656-.9.246a.482.482,0,0,1-.246-.41Q315.82-107.543,316.559-107.461Zm.738,80.719-.082-.492a2.285,2.285,0,0,0,.492-.164.63.63,0,0,0,.082.246v.246a.63.63,0,0,0-.246.082A.334.334,0,0,0,317.3-26.742Zm2.625,18.293a.935.935,0,0,1,.492-.328,1.02,1.02,0,0,1,.574,0q.41.164.41.328.082.656-.738.656T319.922-8.449Zm.328-75.141.492.246-.492.164Zm1.477,70.219a.864.864,0,0,1,.738.328.666.666,0,0,1,.082.82,1.1,1.1,0,0,1-.984.492,1.053,1.053,0,0,1-.9-.656Q320.25-13.371,321.727-13.371ZM323.2-27.4h.492q.492.082.492.164.246.41-.574.492-.656.082-.82-.328Q322.711-27.234,323.2-27.4Zm2.379-22.969q.82,0,.164.656a1.9,1.9,0,0,1-.41-.246Zm.738-33.223.41.246-.41.082Zm.9,13.781.328.246-.41.164ZM327.3-40.77l.164-.246.164.246Zm1.969,23.051q.328.41.164.574a1.6,1.6,0,0,1-1.559.41,1.653,1.653,0,0,1-.492-.328,1.8,1.8,0,0,0,.246-.492Q328.7-18.293,329.273-17.719ZM326.32-31.582l.164.082Q326.648-30.844,326.32-31.582ZM317.051-12.3a5.4,5.4,0,0,1-2.461.082,1.54,1.54,0,0,1-.984-.574,13.118,13.118,0,0,1,1.477-.82,2.879,2.879,0,0,1,1.8-.246q.738.164.82.656A.8.8,0,0,1,317.051-12.3Zm-3.937-.492q-.164-.164-.082-.164a.846.846,0,0,1,.328.164Zm1.969-4.676-.246.492-.492-.246.246-.41Zm1.8-37.406.246-.41.246.328Zm-.574-28.711.164.328q-.328.328-.41.164Q315.656-83.59,316.313-83.59Zm.328,9.68q.082.41-.164.492-.656.246-.82-.41l.246-.492Q316.559-74.648,316.641-73.91Zm-.984,9.434-.41-.164.41-.164Zm-3.363,42.328a.854.854,0,0,1,.41-.984,1.974,1.974,0,0,1,1.723-.328,16.712,16.712,0,0,1,2.215.82.388.388,0,0,1,.328.41.653.653,0,0,1-.738.738q-.246,0-2.379-.082H313.2A.73.73,0,0,1,312.293-22.148Zm-.082-4.84q0,.082-.492.328-.738-.082-.492-.738a.388.388,0,0,1,.41-.328Q312.375-27.645,312.211-26.988Zm-.984,18.949q-.9.164-.492-.574l.574-.164q0,.082.164.246l.164.164Q311.309-8.039,311.227-8.039Zm-9.27-23.3a1.655,1.655,0,0,1,.9.082q-.328.574-.492.41l-.246-.246A.954.954,0,0,0,301.957-31.336Zm-.574,4.758a.332.332,0,0,1-.164-.41q.164-.656.82-.246l.246.41Q301.957-26.168,301.383-26.578Zm-1.148-5.25q-.492-.492.492.082-.164-.082.246.164l-.164-.082Zm-.574-4.512.41.246q0,.738-.656.164Zm-2.953,9.352.164-.328.328.246Zm-1.23-18.621q-.492-.82.492-.492v.492Zm-2.133-9.844.328-.246v.41Zm-1.23,15.094a.747.747,0,0,1-.574-.082l-.328-.328a.662.662,0,0,1,.82-.492,1.009,1.009,0,0,1,.41.164Q292.852-40.523,292.113-40.359ZM301.3-41.1q.164-.164.492,0l.246.41-.41.246Q300.809-40.523,301.3-41.1Zm-11.074-4.43-.574.082q-.9-.246,0-.656a.542.542,0,0,1,.492.082Zm-2.707-5-.41-.328.492-.164Zm-3.035-4.758a.751.751,0,0,1-.984.328.585.585,0,0,1-.246-.9.649.649,0,0,1,.984-.328Q284.895-55.945,284.484-55.289Zm-3.445-13.535a1.88,1.88,0,0,1-.574.164q-.9-.164-.328-.82a.8.8,0,0,1,.492-.328q.492-.082.574,0Q281.777-69.316,281.039-68.824ZM278.906-83.18l-.328-.246.41-.082Zm-2.461,9.68q-.328.164-.492-.082-.656-.656.246-.738a1.654,1.654,0,0,1,.492.328Q276.527-73.5,276.445-73.5Zm-2.625-9.6a2.443,2.443,0,0,1-.246-.328l.328-.164Q274.723-83.262,273.82-83.1Zm-2.707-4.348-.328-.41.492-.082Zm.164,13.945q0,.082-.492.328l-.41-.246q-.082-.82.656-.492Q271.441-73.746,271.277-73.5Zm-1.969-4.758a.3.3,0,0,1-.246-.41l.41-.328.41.246Q270.047-78.012,269.309-78.258Zm-2.051-4.676q-.164,0-1.477.082-2.543-.082-1.969-.574a3.047,3.047,0,0,1,1.723-.41,4.508,4.508,0,0,1,1.23,0,2.7,2.7,0,0,1,.656.082q.492.164.492.246Q268.242-83.016,267.258-82.934Zm-.738,9.188a2.8,2.8,0,0,1-1.148.492,29.228,29.228,0,0,1-6.152.164.562.562,0,0,1-.492-.41.817.817,0,0,1,.41-1.066,4.194,4.194,0,0,1,1.148-.41q.328,0,2.707-.082,3.938.574,3.363.328a.526.526,0,0,1,.328.492A.468.468,0,0,1,266.52-73.746Zm-.738,13.863a1.145,1.145,0,0,1-.984.574,1.342,1.342,0,0,0-.328.082h-.328q-.164,0-1.395.082h-1.641q-.82,0-.9-.656-.164-.738.656-.82a15.268,15.268,0,0,0,1.8-.164q1.23-.082,1.8-.164a1.764,1.764,0,0,1,.984.328Q265.863-60.211,265.781-59.883Zm-5.66,46.922-.41-.41.41-.246q.082,0,.41.328Q260.039-12.961,260.121-12.961Zm-.9-32.648a.388.388,0,0,1-.41.328h-2.215q-1.312.164-1.477.164-.738,0-.656-.82,0-.328.41-.328a9.6,9.6,0,0,1,4.184.082Q259.383-46.02,259.219-45.609Zm-.574,23.215a.8.8,0,0,1-.492.328,24.241,24.241,0,0,1-4.184.574q-.9-.082-.82-.738.082-.574.9-.656a2.41,2.41,0,0,1,.574-.082h.738q2.543.164,2.953.164Q258.809-22.8,258.645-22.395ZM255.938-8.039q-.082,0-.41-.328a1.8,1.8,0,0,1,.492-.246l.328.328Zm-1.395-9.27a.41.41,0,0,1,0-.492.565.565,0,0,1,.984,0v.574Q255.035-16.57,254.543-17.309ZM252.82-36.422q-.492-.574.328-.574l.082.41Q253.066-36.176,252.82-36.422Zm-.164-14.109.164.41-.41-.082Zm-.082-23.789q.574,0,.574.082.656.656-.246.738-.328.082-.492-.328Zm3.2,33.8q-.164,0-1.148.082-.9-.082-.82-.574.082-.164.574-.246,1.477-.41,1.641.246Q256.1-40.605,255.773-40.523Zm.328,8.449.41-.246q.82.328-.082.574Zm.656,4.676q.9,0,.656.656-.082.164-.492.164-.082,0-1.148-.082-.9.164-.984-.41-.082-.492.82-.41A8.11,8.11,0,0,0,256.758-27.4ZM254.3-60.375q.82-.082.82.574.082.574-.738.656H253.8q-.82,0-.9-.492,0-.574.82-.656Q253.8-60.293,254.3-60.375ZM255.117-89a1.818,1.818,0,0,1,.574.082l.492.328-.082.492a1.286,1.286,0,0,1-1.066.41,1.513,1.513,0,0,1-1.066-.492q-.246-.246.164-.574A1.127,1.127,0,0,1,255.117-89Zm2.3,38.063q-.082.492-.164.492a.6.6,0,0,1-.9-.164q-.246-.328.082-.492A.7.7,0,0,1,257.414-50.941Zm1.477-3.937a.934.934,0,0,1-.9.656,3.768,3.768,0,0,1-1.8-.082,1.238,1.238,0,0,1-.492-.41q-.492-.738.246-.984.164,0,1.477-.246Q259.3-55.945,258.891-54.879Zm-.9-42.328-.328.246-.082-.328Zm.656,31.992a5.922,5.922,0,0,1,2.379-.246,8.235,8.235,0,0,0,1.477.246,8.66,8.66,0,0,1,1.559.082q.82.082.492.82a.456.456,0,0,1-.492.41q-.328,0-2.543.082a6.26,6.26,0,0,1-2.953-.246q-.492-.164-.492-.246Q257.742-64.969,258.645-65.215Zm.41-13.371a.44.44,0,0,1,.492-.328,4.007,4.007,0,0,1,1.148-.164q.82.164.656.738a.522.522,0,0,1-.41.328,8.712,8.712,0,0,1-1.23.082Q258.891-78.012,259.055-78.586Zm2.379-14.273q.246-.082,2.379-.41a4.553,4.553,0,0,1,1.723-.328q.82.082.82.82a.787.787,0,0,1-.246.574,1.323,1.323,0,0,1-1.066.492q-1.723.082-3.609,0a.482.482,0,0,1-.41-.246Q260.7-92.7,261.434-92.859ZM251.508-17.8a2.466,2.466,0,0,1-.41-.082l.164-.492Q252.082-18.539,251.508-17.8Zm-1.066,9.762q-.328-.164-.164-.41a.741.741,0,0,1,1.066-.328,3.428,3.428,0,0,0,.164.574A.7.7,0,0,1,250.441-8.039Zm-1.23-56.109a.81.81,0,0,1-1.066.164.415.415,0,0,1-.164-.492.522.522,0,0,1,.328-.41.658.658,0,0,1,.984.246Q249.457-64.477,249.211-64.148Zm-1.559,9.762q-1.395.082-1.395-.656.082-.41.246-.492a2.279,2.279,0,0,1,2.215,0q.082,0,.41.41Q249.129-54.469,247.652-54.387Zm.164,41.508-.574-.164q-.328-.82.656-.574l.328.41A4.964,4.964,0,0,0,247.816-12.879Zm-1.723-37.57v-.41l.492.164ZM244.043-21.9v-.328h.492v.328Zm3.609-38.145q.082,0,.41.41a1.8,1.8,0,0,1-.492.246l-.328-.328Zm1.313-23.461-.328.41-.246-.41Zm55.371,19.852a.841.841,0,0,1-.82.82,1.513,1.513,0,0,1-1.148-.246,25.343,25.343,0,0,1-2.707-3.445q-5.168-7.547-13.453-19.277-11.238-16.078-13.371-19.2-3.855-5.414-6.152-8.7a17.617,17.617,0,0,0-1.641-1.887,1.6,1.6,0,0,0-1.066-.574,17.426,17.426,0,0,0-2.461-.164q-7.055-.082-20.672-.082-.984,0-1.887.082.41,0-1.23.164a1.869,1.869,0,0,0-1.559,1.723q-.164,1.23-.164,5.66V-4.348q0,.082.164,1.887.082,2.133,2.461,2.3,2.3.164,3.117.164h20.59q1.066,0,2.543-.082a7.425,7.425,0,0,1,1.23-.246,1.861,1.861,0,0,0,1.559-1.723q.164-2.051.164-1.887.082-1.723.082-5.66V-28.055l-.082-18.375q0-3.363.082-4.43a11.046,11.046,0,0,1,.164-1.8.941.941,0,0,1,.738-.9,1.2,1.2,0,0,1,1.148.328,28.472,28.472,0,0,1,2.3,2.953q1.313,1.887,18.621,26.66,9.352,13.289,13.289,18.949.574.738,2.215,2.953a4.038,4.038,0,0,0,3.281,1.641h21.82q.328,0,2.461-.246a1.9,1.9,0,0,0,1.8-1.559,13.565,13.565,0,0,0,.41-1.8q.082-3.117.082-6.234V-78.75q.082-19.113,0-29.367,0-2.215-.082-5a4.907,4.907,0,0,0-.492-1.8,2.221,2.221,0,0,0-1.395-1.148,12.968,12.968,0,0,0-3.035-.246l-21.9-.082a7.681,7.681,0,0,0-1.23.082h-.656a3.528,3.528,0,0,1-.656.082,2.069,2.069,0,0,0-2.051,1.969q-.164,1.313-.164,6.234v43.148Q304.582-64.8,304.336-63.656ZM435.914-40.934q-.656.656-.574-.246l.41-.164Zm.246,5.25q-.328.738-.984.41-.656-.41-.164-1.066a1.011,1.011,0,0,1,.574-.164Q436.324-36.422,436.16-35.684ZM434.52-26.66l-.492-.41q.082,0,.246-.164.164-.082.164-.164l.574.082Q435.5-26.578,434.52-26.66Zm-.984-37.57-.41-.246q-.164-.656.656-.574.41.082.41.328Q434.355-64.066,433.535-64.23Zm-.246,32.73a.585.585,0,0,1-.9.246.379.379,0,0,1-.246-.41q0-.656.738-.656Q433.535-32.156,433.289-31.5Zm1.723-38.145-.41.328a.869.869,0,0,1-1.066-.246q.328-.328.41-.328A.869.869,0,0,1,435.012-69.645Zm-2.543-18.621a.934.934,0,0,1,.9-.656,1.637,1.637,0,0,1,1.148.246.747.747,0,0,1,.41.41q.082.41-.164.492a7.521,7.521,0,0,1-1.148.492Q432.141-87.035,432.469-88.266Zm-2.707-4.348-.164-.41a1.889,1.889,0,0,1,.492-.246l.164.492A1.259,1.259,0,0,1,429.762-92.613Zm-.656,14.027q0,.41-.9.492-2.133.246-1.723.246-.9,0-.82-.656.082-.574.9-.656h1.8Q429.27-79.324,429.105-78.586Zm-.9,14.273a1.439,1.439,0,0,1-.41-.164.334.334,0,0,0,.082-.246l.082-.164.41.164Zm-.328,47.168a.852.852,0,0,1-.574.328q.492-.164-4.84.246-4.758-.328-4.922-.328a.44.44,0,0,1-.328-.492.388.388,0,0,1,.328-.41,2.883,2.883,0,0,1,1.477-.164,10.518,10.518,0,0,0,1.559-.082q1.395-.328,3.035-.574.9-.082,3.035-.164a1.881,1.881,0,0,1,.574.164l.492.328A1.116,1.116,0,0,1,427.875-17.145Zm-11.32,4.84q-.738-.328-.328-.984a.791.791,0,0,1,.41-.328q.738-.082.738.656A.657.657,0,0,1,416.555-12.3Zm-1.066,4.43a.334.334,0,0,1-.246.082l.738-.574q.328.492,0,.492Zm-.164-15.258q.574-.164.738.656a.676.676,0,0,1-.574.82.657.657,0,0,1-.82-.656Q414.586-22.969,415.324-23.133Zm-1.066-27.48q0-.082.164-.164l.164-.164.164.164.164.164q-.328.328-.328.246Zm.328-14.355.574.164a4.093,4.093,0,0,0-.082.492.69.69,0,0,1-.574.082q0-.082-.41-.41A1.654,1.654,0,0,1,414.586-64.969Zm-.082-32.4.492.246-.492.082Zm2.215,60.785-.738.492a1,1,0,0,1-.492.246q-.492,0-.492-.164,0-.082.41-.246A5.454,5.454,0,0,1,416.719-36.586Zm.574-65.543a.44.44,0,0,1,.492-.328q.82-.082.656.656-.082.082-.492.41Q417.211-101.391,417.293-102.129Zm.492,56.273.41-.164.328.246-.328.164A1.2,1.2,0,0,1,417.785-45.855Zm.82-47.168a2.205,2.205,0,0,1,1.641-.164q.082,0,.41.41.246.9-1.8.9a1.04,1.04,0,0,1-.492-.246Q417.949-92.613,418.605-93.023Zm2.133,14.848a.81.81,0,0,1-1.066.164q-.41-.246-.328-.492a.759.759,0,0,1,.984-.41l.492.328Zm.164,46.43-.328-.082.164-.164Zm4.594,4.922a.947.947,0,0,1-.984.41q-.82-.082-.82-.656,0-.656.82-.656a1.219,1.219,0,0,1,.9.328Q425.742-27.07,425.5-26.824Zm.9,5a.334.334,0,0,0-.246-.082l-.164-.082v-.164a.63.63,0,0,0,.082-.246l.41.164Zm.82-23.953-.41.164.082-.41Zm-5.086-24.035a2.947,2.947,0,0,1,1.148-.082q.328,0,4.1.246-3.035,1.066-3.2,1.148a3.342,3.342,0,0,1-2.3-.164q-.41-.164-.41-.328A.657.657,0,0,1,422.133-69.809Zm.82-13.945a9.029,9.029,0,0,1,4.266-.164q.82.082.656.656a.562.562,0,0,1-.492.41q-.246,0-2.133.082-1.8-.164-2.133-.246a1.653,1.653,0,0,1-.492-.328Zm2.789-8.613.328.246-.41.082Zm-12.469,61.2q-.738,0-.246-.574a1.439,1.439,0,0,0,.41.164Zm-.492,4.512H410.4q-.41,0-.492-.246-.164-.574.656-.574h1.23v.082h1.148q.41,0,.492.246Q413.6-26.66,412.781-26.66ZM410.73-12.469a4.54,4.54,0,0,1-1.148-.328.388.388,0,0,1-.328-.41.527.527,0,0,1,.41-.41q.164,0,1.23-.164a.873.873,0,0,1,.984.41.423.423,0,0,1-.164.656A1.23,1.23,0,0,1,410.73-12.469Zm-.164-10.664a.9.9,0,0,1,.574.9.79.79,0,0,1-.574.656.905.905,0,0,1-.9-.164A.7.7,0,0,1,409.5-22.8.834.834,0,0,1,410.566-23.133ZM407.7-35.684a.8.8,0,0,1-.328-.492.415.415,0,0,1,.164-.492,2.245,2.245,0,0,1,1.641-.574q.738.082.492.82Q409.172-35.027,407.7-35.684Zm-5.168-4.594q-.82,0-.656-.82a.388.388,0,0,1,.41-.328h2.707q2.133.164,2.789.246l.246.41a2.6,2.6,0,0,1-.574.246Q404.25-40.359,402.527-40.277Zm2.379,27.727a1.862,1.862,0,0,1-1.477-.328,1.715,1.715,0,0,1,1.395-.738q.41.082.492.246Q405.645-12.715,404.906-12.551Zm-5.168,0a.8.8,0,0,1-.328-.492q-.082-.656.656-.738a4.02,4.02,0,0,1,1.148,0,8.323,8.323,0,0,1,2.051.9,4.964,4.964,0,0,0-.41.328A2.282,2.282,0,0,1,399.738-12.551Zm2.871,4.43-.328-.246.492-.082Zm-3.527-69.645a1.1,1.1,0,0,1-.984-.492q-.574-.82,1.066-.9a2.24,2.24,0,0,1,1.148.246.661.661,0,0,1,.328.492q0,.246-.41.492A1.834,1.834,0,0,1,399.082-77.766ZM397.523-21.82l-.41-.164.082-.41a2.285,2.285,0,0,1,.492.164ZM396.7-7.957a1.653,1.653,0,0,1-.492-.328,1.909,1.909,0,0,0,.492-.328l.164.164q.164.164.246.164ZM396.129-83.1l-.41-.328.492-.164Zm-.574,51.6a.379.379,0,0,1-.246-.41l.328-.328.41.164Q396.293-31.336,395.555-31.5Zm-1.23-27.973.082-.41.328.246Zm-.738,13.945a7.431,7.431,0,0,1-2.3,0q-.328-.164-.164-.41.164-.328.41-.328t1.723.164h0a1.358,1.358,0,0,1,.656.082Q394.488-45.609,393.586-45.527ZM391.7-12.8q-.738,0-.656-.574,0-.164.41-.246a1.02,1.02,0,0,1,.574,0q.41.082.41.328Q392.52-12.715,391.7-12.8Zm-1.641-56.437.164-.41q.738-.164.246.492Zm-6.07-13.7a.522.522,0,0,1-.328-.41q-.082-.328.328-.41.9-.082,3.938-.41,2.461.164,2.707.164a.74.74,0,0,1,.738.82q0,.574-.738.82a3.456,3.456,0,0,1-.574.082Q386.531-82.687,383.988-82.934Zm5,27.645.164-.246.164.328Zm-.82,47.168h-.492q-.328-.656.492-.41Zm-2.625-69.727q-.82-.164-.574-.82a.522.522,0,0,1,.41-.328h1.641q.984.164.82.738-.082.246-.492.328A3.957,3.957,0,0,1,385.547-77.848Zm.328,27.234a1.02,1.02,0,0,1-.574,0l-.41-.328a1.8,1.8,0,0,1,.492-.246l.574.082A4.093,4.093,0,0,0,385.875-50.613Zm-3.527-13.453q-.164,0-1.477-.164-1.969.082-2.133.082-.82,0-.656-.574.082-.246.492-.246.656,0,1.8-.082h1.8q.9-.082.984.41Q383.25-63.984,382.348-64.066Zm-1.312,4.676q-.082.164-.41.164a.379.379,0,0,1-.41-.246q-.328-.492.41-.574Q381.363-59.965,381.035-59.391Zm-1.8-14.766-.328.41q-.82,0-.41-.656.246-.328.492-.164Zm-1.312-4.676q.164-.574.984-.574a9.276,9.276,0,0,1,1.148.328.527.527,0,0,1,.41.41q.164.656-.656.738a8.111,8.111,0,0,1-1.148-.082Q377.754-78.094,377.918-78.832Zm-1.23,9.926a1.011,1.011,0,0,1-.574-.164l-.328-.328a.6.6,0,0,1,.82-.492q.41.082.492.246Q377.508-69.07,376.688-68.906Zm0,28.137q0-.082-.164-.082l-.164-.082.164-.41Q377.262-41.344,376.688-40.77ZM373.57-88.1l-.328-.328.41-.082ZM371.6-92.7a.468.468,0,0,1-.164-.492.517.517,0,0,1,.9-.082l.082.492Q372.012-92.285,371.6-92.7Zm.41,37.816q-.574.574-.574-.328l.246-.328.41.164A.357.357,0,0,1,372.012-54.879Zm-1.23-19.113.328-.246v.41Zm-.328,24.527-.328-.246.41-.164Zm-1.477-28.711q-.738-.246,0-.574l.328.328Zm-.328,46.266-.082-.328.41.164ZM378.574-92.7q.246-.41.984-.328a.992.992,0,0,1,.984.492,3.488,3.488,0,0,1-.328.492,1.346,1.346,0,0,1-1.559-.164Q378.41-92.367,378.574-92.7Zm.082-9.6.328.164-.41.164Zm2.461,32.566a.4.4,0,0,1,.574,0q.082,0,.246.574l-.492.246Q380.543-69.07,381.117-69.727Zm.82-18.621A.977.977,0,0,1,383-88.676a1.128,1.128,0,0,1,.574.246q.082.082.9.656-1.23.41-1.559.492-.656.164-.984-.574Q381.773-88.184,381.938-88.348Zm4.266-4.594v.492q-.41.164-.41.082-.328-.082-.328-.328Q385.629-93.434,386.2-92.941Zm2.379,4.43-.082.328-.246-.164Zm2.789-4.676q.738-.082.492.738l-.41.328-.41-.164Q390.551-93.023,391.371-93.187Zm.82-14.109a.357.357,0,0,1,.082.492l-.492.246-.328-.328Q391.453-107.707,392.191-107.3Zm.9,5a.891.891,0,0,0-.164.328,2.134,2.134,0,0,0-.656-.082Q392.355-102.457,393.094-102.293Zm-.41,4.922.164-.41.246.41Zm.41,42.41q-.41.656-.984.41-.738-.328-.164-.984a1.013,1.013,0,0,1,.574-.246Q393.176-55.781,393.094-54.961Zm0-23.133H392.6l-.164-.41a.388.388,0,0,1,.41-.328Q393.586-78.75,393.094-78.094Zm4.02-10.5q2.543-.328,2.379-.328a1.011,1.011,0,0,1,.574.164q.328.246.246.492a.817.817,0,0,1-.9.574h-.656q-1.066-.246-1.148-.246a1.752,1.752,0,0,1-1.066-.41Zm5.5,71.367-.41.41a.72.72,0,0,1-.984-.328q-.41-.574.328-.82a.542.542,0,0,1,.492-.082Q402.691-17.8,402.609-17.227Zm2.379-9.926a3.183,3.183,0,0,0-.164.41l-.492-.164.082-.41A2.543,2.543,0,0,1,404.988-27.152ZM404.5-31.5q-.574.082-1.23.164h-.328q-1.148-.082-1.066-.738,0-.656.9-.574l1.8.164q.41.082.492.328Q405.316-31.664,404.5-31.5Zm-.328,9.105v.492a5.753,5.753,0,0,1-3.035.656.783.783,0,0,1-.738-.9.661.661,0,0,1,.328-.492,2.109,2.109,0,0,1,1.723-.328A2.924,2.924,0,0,1,404.168-22.395Zm-2.379-80.062.328.41q-.164.738-.9.492-.328-.164-.328-.41Q401.051-102.7,401.789-102.457Zm-.082,56.273a1.259,1.259,0,0,0,.492.164q-.246.656-.164.492a2.285,2.285,0,0,0-.492-.164Zm-.82-13.453.41-.164-.082.328Zm.492,32.813q-.328,0-.328-.164,0-.656.492-.164Zm.82-80.473.164.41a.388.388,0,0,1-.41.328q-.82-.082-.328-.656Zm1.723,23.625a.357.357,0,0,1,.082.492q-.574.738-1.723,0v-.41A1.251,1.251,0,0,1,403.922-83.672Zm2.789,37.816-.492.246-.082-.41Zm-.41-13.781-.41.246-.082-.41Zm.656-5.25a1.441,1.441,0,0,1,1.148.164q-.082.328-.164.328a.69.69,0,0,1-.574.082.668.668,0,0,1-.492-.164q-.082,0,0-.164Q406.875-64.887,406.957-64.887Zm1.641-37.652q.984-.082.492.738h-.574q0,.082-.328-.41Zm.9,14.93q-.492.164-.574.082-.738-.246-.246-.9a.57.57,0,0,1,.574-.164Q409.992-88.348,409.5-87.609Zm0,32.73-.492.246a3.428,3.428,0,0,1-.574-.164,1.889,1.889,0,0,1,.246-.492.541.541,0,0,1,.574,0Zm-.492-23.215-.164-.164L408.6-78.5l.492-.246a3.192,3.192,0,0,1,1.23.082q.574.164.41.328-.328.082-1.148.246Zm1.723-14.93a.791.791,0,0,1,.984.164,3.428,3.428,0,0,0,.164.574,1.078,1.078,0,0,1-.9.574q-.82.082-.9-.492Q409.992-92.7,410.73-93.023Zm1.723,47.086q.082-.41.41-.328.9.082.328.738l-.574.082ZM367.418-59.8l-.082-.328.328.082Zm-2.461,9.352-.492.164-.328-.328q-.082-.738.656-.328A.324.324,0,0,1,364.957-50.449Zm-1.8-32.648a.357.357,0,0,1-.082-.492.744.744,0,0,1,.984-.246.929.929,0,0,1,.328.328.415.415,0,0,1-.164.492A.863.863,0,0,1,363.152-83.1Zm-.164,56.355a4.964,4.964,0,0,0-.41-.328l.41-.328.41.328Zm-1.559-70.3-.082-.246.41.082Zm-.738,75.551q-1.723.082-1.148-.82a1.036,1.036,0,0,1,1.066-.41q.82,0,.9.574T360.691-21.492Zm-1.559-34.453q0-.082.492-.164l.082.41-.492.164Zm-.41-12.961q-.9-.246-.164-.82a.489.489,0,0,1,.492-.082q.41.082.492.328l-.328.41Zm-4.676,9.516-.082-.328h.328Zm5.66-19.359a4.09,4.09,0,0,0,.492-.082l.41.328q.082.164-.246.328a.542.542,0,0,1-.492.082Q359.051-78.34,359.707-78.75Zm72.188-29.941a36.829,36.829,0,0,0-13.371-6.562,33.208,33.208,0,0,0-8.039-1.066H404.25L360.2-116.4h-7.793q-1.477,0-3.117.082a3.529,3.529,0,0,0-.656.082,3.455,3.455,0,0,1-.574.082,1.764,1.764,0,0,0-1.641,1.641,36.561,36.561,0,0,0-.246,5.578v50.613h0V-3.937q0-.164.164,1.8a2,2,0,0,0,1.559,1.8A16.731,16.731,0,0,0,350.355,0h55.617q3.855,0,7.465-.246a28.535,28.535,0,0,0,9.105-2.133A36.442,36.442,0,0,0,443.707-23.3,28.1,28.1,0,0,0,446-32.32q.246-4.184.246-3.773a37.258,37.258,0,0,0-1.641-12.3,42.13,42.13,0,0,0-2.133-5.168q-.246-.41-.574-1.066-.492-.82-.656-1.148a12.042,12.042,0,0,1-.492-1.148,2.991,2.991,0,0,1,0-2.379,31.521,31.521,0,0,1,1.477-3.117q.984-1.887,1.477-3.117a33.079,33.079,0,0,0,1.969-6.562,47.456,47.456,0,0,0,.574-7.465,37.071,37.071,0,0,0-2.461-13.371A37.3,37.3,0,0,0,431.895-108.691Zm119.93,30.516h-.492q-.574-.492.164-.656.246-.082.41.246Zm-.574,27.809q-.082.246-.492.328a3.409,3.409,0,0,1-1.23.082,8.28,8.28,0,0,0-3.609.328,7.718,7.718,0,0,1-4.84-.082q-.164-.082-.246-.492a.709.709,0,0,1,.246-.492,1.768,1.768,0,0,1,1.066-.492h8.613Q551.66-51.105,551.25-50.367Zm-4.922,15.176q-6.645.246-8.7.082-1.312-.164-7.547-.082a4.645,4.645,0,0,1-2.379-.574.526.526,0,0,1-.328-.492.552.552,0,0,1,.246-.492,10.854,10.854,0,0,1,3.117-.492q.984.082,1.23.082a22.6,22.6,0,0,0,7.465-.082,12.724,12.724,0,0,1,3.691-.164q1.559,0,4.348.082a4.922,4.922,0,0,1,2.871.984q-1.8.656-2.215.738A5.785,5.785,0,0,1,546.328-35.191Zm-1.312,4.184a5.307,5.307,0,0,1-1.148.574,9.949,9.949,0,0,1-4.922-.082,8.712,8.712,0,0,0-1.23-.082,8.392,8.392,0,0,0-1.23.164,11.553,11.553,0,0,1-4.922.082,6.616,6.616,0,0,0-2.543,0,36.226,36.226,0,0,1-8.039-.082q-4.02-.41-3.117-.328a49.605,49.605,0,0,0-8.121-.41q-.9,0-.738-.656.164-.492,1.066-.492,2.379-.164,1.887-.082.082,0,2.3.082,1.887-.082,2.051-.082-.082,0,7.465-.41a28.822,28.822,0,0,1,4.348,0,42.526,42.526,0,0,0,7.465,0,10.619,10.619,0,0,1,1.887,0q.9.082,3.691.082a17.182,17.182,0,0,1,3.773.328q.41.082.492.328A.817.817,0,0,1,545.016-31.008Zm-1.148,4.676a6.668,6.668,0,0,1-1.8.082q-.984-.164-.82-.738.082-.574.984-.574l.738.082q1.066.082,1.148.082.492.082.492.328Q544.77-26.578,543.867-26.332Zm-9.926.656q-.82.082-.574.082a20.537,20.537,0,0,0-5-.164,9.762,9.762,0,0,1-1.8,0q-1.395-.164-1.887-.164a23.042,23.042,0,0,1-4.922-.246,5.463,5.463,0,0,0-1.887,0,15.124,15.124,0,0,1-3.691.164h-5a3.428,3.428,0,0,1-.574-.164q-.82-.246-.82-.82-.082-.656.738-.82a3.429,3.429,0,0,1,.574-.164,1.254,1.254,0,0,1,.656,0,26.51,26.51,0,0,0,3.445.164q2.3,0,3.363.082a31.152,31.152,0,0,0,5.5.082,55.071,55.071,0,0,1,6.973-.328q1.723.082,4.922.164a1.257,1.257,0,0,1,.984.656.983.983,0,0,1-.164.9A1.515,1.515,0,0,1,533.941-25.676Zm.656,3.445a.747.747,0,0,1-.41.41,4.417,4.417,0,0,1-2.953.246q-.738-.246-.574-.9a1.508,1.508,0,0,1,.984-.738,10.648,10.648,0,0,1,2.379.164Q534.926-22.887,534.6-22.23Zm-.574,5.168a.236.236,0,0,1-.082-.164.63.63,0,0,1-.082-.246l.41-.164a2.285,2.285,0,0,0,.164.492ZM530-17.391a.868.868,0,0,1-.738.738q-.164,0-1.641.246a2,2,0,0,1-.738-.164.976.976,0,0,1-.656-.492.948.948,0,0,1-.164-.9,1.257,1.257,0,0,1,.984-.656,6.383,6.383,0,0,1,2.379.328A.784.784,0,0,1,530-17.391Zm-2.051,5.332a.759.759,0,0,1-.492,0q-.656-.328-.328-.9l.41-.246a.733.733,0,0,1,.656.738A.482.482,0,0,1,527.953-12.059Zm-5.414-9.926q-.164.738-1.723.328a.527.527,0,0,1-.41-.41q-.082-.656.738-.656a1.513,1.513,0,0,1,1.148.246Q522.621-22.23,522.539-21.984Zm-1.641,4.84v-.574a2.285,2.285,0,0,1,.492-.164.526.526,0,0,1,.328.492Q521.555-16.406,520.9-17.145Zm.492,4.594a1.083,1.083,0,0,1-.9.82,4.964,4.964,0,0,1-1.8,0,6.276,6.276,0,0,0-1.8-.246,44.616,44.616,0,0,1-8.613-.246q.246.082-4.348-.246-.82-.082-.656-.82.082-.246.492-.328a76.482,76.482,0,0,1,8.613-.246q3.445,0,3.773-.082H517.7q.9-.082,1.477-.082-.164,0,1.23.082A1.028,1.028,0,0,1,521.391-12.551ZM512.2-7.3a5.79,5.79,0,0,1-2.3.492,1.408,1.408,0,0,1-.574-.082,9.36,9.36,0,0,0-2.379-.492,8.373,8.373,0,0,1-2.379-.492.44.44,0,0,1-.328-.492q0-.246.328-.41a2.555,2.555,0,0,1,1.066-.328q.246,0,2.625-.082,3.281.41,4.02.492a.527.527,0,0,1,.41.41Q512.941-7.629,512.2-7.3Zm-16.652-8.941q-5.168.082-5.66.082a9.346,9.346,0,0,1-3.609-.738.552.552,0,0,1-.246-.492.787.787,0,0,1,.246-.574,1.909,1.909,0,0,1,.492-.328,4.5,4.5,0,0,1,.574-.246,44.989,44.989,0,0,1,9.926-.328,25.621,25.621,0,0,0,3.117,0,8.826,8.826,0,0,1,4.184.574.526.526,0,0,1,.328.492.787.787,0,0,1-.246.574.8.8,0,0,1-.492.328,15.794,15.794,0,0,1-3.691.574h-4.922Zm.656,3.445a7.121,7.121,0,0,1-1.23.246q-1.641,0-1.559-.656t1.641-.574a8.163,8.163,0,0,1,1.23.246.388.388,0,0,1,.328.41A.522.522,0,0,1,496.207-12.8Zm-8.613,0q.082-.082-.574.164-.246.082-1.066.328.738-.656.9-.82a.75.75,0,0,1,1.066-.082Q488.086-13.043,487.594-12.8Zm-3.937.656Zm-.738-9.762a1.02,1.02,0,0,1,0-.574.668.668,0,0,1,.9-.574,1.84,1.84,0,0,1,1.477.984,3.428,3.428,0,0,0-.164.574,1.314,1.314,0,0,1-1.148.164A1.6,1.6,0,0,1,482.918-21.9Zm7.055-.246v.492q-.574.328-.738-.328,0-.246.41-.328Zm-7.629-3.281a2.221,2.221,0,0,1-1.395-1.148q-.082-.328.328-.738a1.254,1.254,0,0,1,.9-.41l.574-.082h.656q.492,0,3.938.164a8.791,8.791,0,0,0,1.969-.082,5.826,5.826,0,0,1,2.133-.082,1.043,1.043,0,0,1,.9,1.477.868.868,0,0,1-.738.738,3.529,3.529,0,0,1-.656.082,16.169,16.169,0,0,0-4.348-.082q-.492.082-1.8.164a17.679,17.679,0,0,0-1.887.082A.747.747,0,0,1,482.344-25.43Zm-.492,7.957a.883.883,0,0,1-1.066.41.688.688,0,0,1-.492-.984.683.683,0,0,1,.984-.41A.844.844,0,0,1,481.852-17.473ZM471.762-31.5a.508.508,0,0,1-.164-.574q0-.246.41-.41a1.011,1.011,0,0,1,.574-.164,20.323,20.323,0,0,0,3.363.082,26.668,26.668,0,0,1,3.445-.082q.164,0,5.086.164,5.906-.082,6.645-.082a11.809,11.809,0,0,1,3.117.164,1.053,1.053,0,0,1,.738.9.908.908,0,0,1-.574.984,1.881,1.881,0,0,1-.574.164q-3.609.082-7.465.164a6.8,6.8,0,0,1-1.23-.082,16.312,16.312,0,0,0-6.152-.164A12.419,12.419,0,0,1,471.762-31.5Zm4.84,9.68q-.328-.164-.246-.41.246-.738.9-.328l.164.492Q477.176-21.41,476.6-21.82Zm-1.559-5a.759.759,0,0,1-.984.41q-.82-.246-.574-.82a.935.935,0,0,1,.492-.328h.574Q475.371-27.4,475.043-26.824Zm-3.691-13.617a.648.648,0,0,1-.984.082q-.41-.164-.328-.41.164-.738.9-.492l.492.246Q471.352-40.523,471.352-40.441Zm-1.641,5.168q-1.23,0-1.066-1.23.082-1.23,1.23-.9a.9.9,0,0,1,.738.82Q470.859-35.191,469.711-35.273ZM468.4-50.367a.468.468,0,0,1,.164-.492.552.552,0,0,1,.492-.246q3.773-.246,5.578-.164.246,0,.984.082a6.782,6.782,0,0,0,.9.082,4.49,4.49,0,0,1,3.117,1.559,4.723,4.723,0,0,0-3.445-.164,8.422,8.422,0,0,1-3.117.246q-2.953-.328-4.266-.492A.527.527,0,0,1,468.4-50.367Zm-.328-42.246a.44.44,0,0,1,.492-.328l.328.328-.164.492Q467.906-91.711,468.07-92.613Zm-2.379,37.57q-.328.656-1.066.164a.552.552,0,0,1-.246-.492q-.082-.738.738-.574Q465.938-55.7,465.691-55.043Zm5.414-33.387a1.653,1.653,0,0,1,.492.328,1.8,1.8,0,0,0-.246.492q-.328.164-.492,0Q470.285-88.348,471.105-88.43Zm3.117,18.785v.328l-.328-.246Zm.9,14.273q-.164.41-.246.41-.656.164-.492-.656.082-.246.492-.164ZM474.8-92.859l.41.328-.164.492a.4.4,0,0,1-.574,0Q473.895-92.7,474.8-92.859Zm1.313-4.512.082.492-.41-.164Zm2.133,27.891-.492.164v-.41Zm1.723-8.777-.41.246-.328-.328.41-.246Q479.719-78.586,479.965-78.258Zm-3.117-5.332a6.973,6.973,0,0,1,2.789-.164,15.6,15.6,0,0,0,1.641-.164,4.518,4.518,0,0,1,1.559.082,1.465,1.465,0,0,1,.41.41.713.713,0,0,1-.41.984,1.012,1.012,0,0,1-.574.246,30.368,30.368,0,0,0-3.609-.082q-1.477-.41-1.723-.492a.527.527,0,0,1-.41-.41A.388.388,0,0,1,476.848-83.59Zm3.117-8.367a.541.541,0,0,1-.574,0,3.428,3.428,0,0,0-.164-.574,1.8,1.8,0,0,1,.492-.246Q480.621-92.613,479.965-91.957Zm.82,3.527-.082.328-.328-.246Zm-2.215-14.109q1.8.082,1.723.082.82.082.492.656a.589.589,0,0,1-.41.246h-1.8q-.82.082-.9-.492T478.57-102.539Zm5.168,37.57q.246-.082.574-.164,6.48-.328,7.383-.328.984,0,6.152.246a.709.709,0,0,1,.492.246q.574.492.246.984a.661.661,0,0,1-.492.328,10.619,10.619,0,0,1-1.887,0,7.325,7.325,0,0,0-1.8-.082q-.246,0-3.035.164a65.586,65.586,0,0,0-6.809-.164,2.022,2.022,0,0,1-1.148-.328.468.468,0,0,1-.164-.492A.769.769,0,0,1,483.738-64.969ZM484.313-79a.754.754,0,0,1,.984-.492,4.54,4.54,0,0,1,1.148.328q.738.328.492.984a.849.849,0,0,1-.984.492q-1.066-.328-1.148-.328Q484.066-78.34,484.313-79Zm2.461,10.09-.164-.492.492-.164Q487.758-68.906,486.773-68.906Zm-.246-3.937a2.06,2.06,0,0,1-1.641-.328q-.574-.41-.082-.984a1.04,1.04,0,0,1,.492-.246q.082,0,1.148-.164a1.1,1.1,0,0,1,.984.492Q487.922-73.09,486.527-72.844Zm-1.312-15.012a1.02,1.02,0,0,1,.738-.82,3.456,3.456,0,0,1,.574-.082q.164,0,1.23-.082a4.543,4.543,0,0,1,1.148.246q.738.164.656.82a.522.522,0,0,1-.328.41,4.158,4.158,0,0,1-3.445.41A.784.784,0,0,1,485.215-87.855Zm2.707-4.43-.082.41-.41-.246Zm-.246-5.66a1.1,1.1,0,0,1,.9.246q.41.41.246.656a.947.947,0,0,1-.984.41q-.82.082-.9-.574T487.676-97.945Zm2.707,14.684-.41.246a1.2,1.2,0,0,1-.41-.246l.164-.164a.954.954,0,0,0,.246-.164Q489.891-83.59,490.383-83.262Zm-.574-23.625a.415.415,0,0,1,.492.164q.574.656-.41.738a4.942,4.942,0,0,1-1.723-.492Q489.4-106.8,489.809-106.887Zm1.313,27.809.082.328h-.328Zm1.23,9.516a.688.688,0,0,1,.9-.41l.41.246a4.093,4.093,0,0,0-.082.492.743.743,0,0,1-.984.082Q492.27-69.4,492.352-69.562Zm.984-18.7a1.8,1.8,0,0,1,.492-.246.3.3,0,0,1,.246.41q-.082.82-.656.328A4.093,4.093,0,0,0,493.336-88.266Zm2.133,10.09q0-.656.574-.246l-.164.41Q495.469-78.012,495.469-78.176Zm.82,3.609h1.23q.9,0,.82.656-.082.492-.984.574-.082,0-1.148.082-.9,0-.82-.656T496.289-74.566Zm-1.723-23.3a4.553,4.553,0,0,1,4.02.164l.328.492-.41.328a25.14,25.14,0,0,1-2.871.656,3.935,3.935,0,0,1-1.148-.246.747.747,0,0,1-.41-.41A.754.754,0,0,1,494.566-97.863Zm.328-9.516a.379.379,0,0,1,.41.246q.41.574-.328.82t-.82-.492Q494.074-107.461,494.895-107.379Zm1.148,5.25a.937.937,0,0,1,1.066-.41,2.035,2.035,0,0,1,.574.246q.246.738-.656.738a.8.8,0,0,1-.574-.164Q495.961-101.965,496.043-102.129Zm3.938-4.594-.164.328-.164-.41Zm1.23,47q0,.492-.82.656-.492.082-.574.082a9.1,9.1,0,0,0-3.609.246,2.911,2.911,0,0,1-1.23.082q-.656,0-.738-.738a.526.526,0,0,1,.246-.574,2.725,2.725,0,0,1,1.723-.574q.082,0,1.313.246,2.543-.082,2.871-.082Q501.211-60.375,501.211-59.719Zm-.328-9.844a.791.791,0,0,1,.41-.328q.246-.082,1.641-.41,5.25.41,5,.41a1.011,1.011,0,0,1,.574.164.709.709,0,0,1,.246.492.661.661,0,0,1-.328.492.882.882,0,0,1-.492.164q-.984.082-3.035.328a19.882,19.882,0,0,1-3.035.328,1.817,1.817,0,0,1-.574-.082.769.769,0,0,1-.492-.41A.849.849,0,0,1,500.883-69.562Zm4.43-8.859v.328l-.328-.246Zm2.215-23.871a1.5,1.5,0,0,1,1.066.41q.164.328-.246.492-.082.082-.574-.082a3.428,3.428,0,0,1-.574-.164l-.492-.246Q506.707-102.293,507.527-102.293ZM509.5-87.937a.709.709,0,0,1-.246.492.715.715,0,0,1-.984-.164.672.672,0,0,1-.246-.41q0-.574.738-.574A.743.743,0,0,1,509.5-87.937Zm.738,14.027q.246.164.082.492l-.492.246L509.5-73.5Q509.578-74.4,510.234-73.91ZM510.4-92.7q.246-.82.984-.574a12.576,12.576,0,0,1,1.559.656,2.923,2.923,0,0,1-1.477.984.867.867,0,0,1-1.066-.492A1.02,1.02,0,0,1,510.4-92.7Zm1.23-5a.709.709,0,0,1,.492-.246.668.668,0,0,1,.656.738.745.745,0,0,1-.9.328Q511.137-97.207,511.629-97.7Zm1.641,14.438q-.082.738-1.477.574a.934.934,0,0,1-.9-.656q0-.246.41-.41a1.61,1.61,0,0,1,1.641.082Q513.023-83.672,513.27-83.262Zm1.641,9.352q.082,0,.164.41a2.466,2.466,0,0,1-.41.082,1.35,1.35,0,0,0-.082-.41Zm.492,19.031-.41.082.164-.41Zm4.922-.082.328-.328.082.41Zm.082,13.535a2.859,2.859,0,0,1-1.395.492q-.41.082-.492-.164-.41-.656.328-.82A1.559,1.559,0,0,1,520.406-41.426ZM507.363-54.8a.849.849,0,0,1-.984.492q-.738-.328-.41-.984a.713.713,0,0,1,.984-.41Q507.691-55.535,507.363-54.8Zm1.313,13.781a.308.308,0,0,1,0,.492.6.6,0,0,1-.9.164,1.408,1.408,0,0,1-.41-.41q0-.164.328-.41Q508.348-41.508,508.676-41.016Zm1.887-22.969a1.222,1.222,0,0,1-1.066.41,1.5,1.5,0,0,1-1.395-.984q-.246-.656.574-.82a1.974,1.974,0,0,1,1.723.328Q511.055-64.641,510.563-63.984Zm1.066,17.555a2.937,2.937,0,0,1,1.23-.164,11.5,11.5,0,0,1,1.23.082,8.391,8.391,0,0,0,1.23.164,1.513,1.513,0,0,1,1.066.492,1.145,1.145,0,0,1-.984.574q-.082,0-2.461.328-1.066.082-1.23.082a.74.74,0,0,1-.82-.738A.8.8,0,0,1,511.629-46.43Zm-1.477-12.3a3.781,3.781,0,0,1-1.8-.328.4.4,0,0,1-.246-.492.661.661,0,0,1,.328-.492.787.787,0,0,1,.574-.246q.082,0,1.23-.082a.963.963,0,0,1,.984.574Q511.793-58.734,510.152-58.734Zm-6.891,7.957a.73.73,0,0,1-.574.9q-1.23.41-1.477-.574-.164-.656.574-.9a2.411,2.411,0,0,1,.574-.082A1.053,1.053,0,0,1,503.262-50.777ZM501.293-54.3a1.469,1.469,0,0,1-.82-.41.731.731,0,0,1-.246-.82.747.747,0,0,1,.41-.41,1.206,1.206,0,0,1,1.641.574l.082.574A.993.993,0,0,1,501.293-54.3Zm-5.414,4.02q0,.82-.738.656-.82-.164-.574-.9.082-.246.492-.328Q495.8-51.105,495.879-50.285Zm-.492-4.184a1.123,1.123,0,0,1-1.066.41q-.9-.082-.656-.738a1.078,1.078,0,0,1,.9-.738q.738-.164.9.492A.69.69,0,0,1,495.387-54.469Zm-5,4.1-.492.164q-.656-.656.328-.656ZM489.4-58.9a1.036,1.036,0,0,1-1.066-.41q-.246-.164-.082-.492a.934.934,0,0,1,.9-.656,1.036,1.036,0,0,1,1.066.41l.082.574A.9.9,0,0,1,489.4-58.9Zm-2.133,3.2q.574-.082.82.574.492.984-.9,1.066a.78.78,0,0,1-.9-.492.668.668,0,0,1,.164-.738A1.01,1.01,0,0,1,487.266-55.7Zm-5.086.574a.63.63,0,0,1,.246.082.334.334,0,0,1,.246.082l-.164.492Q481.605-54.3,482.18-55.125Zm3.363,3.938q.82.082.656.738a.8.8,0,0,1-.328.492,2.725,2.725,0,0,1-1.723.574,22.246,22.246,0,0,0-2.461-.082H479.8q1.887-.984,2.133-1.066A5.809,5.809,0,0,1,485.543-51.187Zm-6.316,11.074q.164-1.641,1.313-1.723,1.066-.082,2.543-.164a.742.742,0,0,1,.656.41,1.07,1.07,0,0,1,.082.9,1.337,1.337,0,0,1-.41.492A7.3,7.3,0,0,1,479.227-40.113Zm1.641,2.871q.574.082.656.9a.8.8,0,0,1-.492.984,2.134,2.134,0,0,1-.656.082q-.164,0-2.543.164-1.559-.082-1.8-.082a1.213,1.213,0,0,1-.9-.656q-.246-.328.082-.82a.98.98,0,0,1,.738-.656q.82-.246,1.148-.328h1.313A16.242,16.242,0,0,1,480.867-37.242Zm18.457-7.383a38.145,38.145,0,0,0-9.352,0,4.994,4.994,0,0,1-1.8,0q-1.641-.164-5.578-.164a42.652,42.652,0,0,0-6.891.246,3.338,3.338,0,0,1-1.8-.328,1.465,1.465,0,0,1-.41-.41q-.246-.656.492-.984a4.54,4.54,0,0,1,1.148-.328,5.394,5.394,0,0,1,1.313-.164q2.625.082,13.7.246,6.645-.082,7.465-.082a20.793,20.793,0,0,1,5.578.328q.41.082.492.328.164.656-.656.9A7.577,7.577,0,0,1,499.324-44.625Zm-.9,3.609a1.1,1.1,0,0,1,.984-.492h1.23q.738.164.492.9a.522.522,0,0,1-.41.328,4.006,4.006,0,0,1-1.148.164Q497.93-40.113,498.422-41.016Zm-.328,15.094a4.919,4.919,0,0,1-2.379-.328.649.649,0,0,1-.328-.984.8.8,0,0,1,.492-.328,12.437,12.437,0,0,1,4.184-.656,3.776,3.776,0,0,1,1.723.492.791.791,0,0,1,.328.41q.246.656-.492.9A11.889,11.889,0,0,1,498.094-25.922Zm-2.051,2.461a6.357,6.357,0,0,1,2.215.574.791.791,0,0,1,.328.41q.246.82-.492.9-.82.164-3.035.41-.082,0-.574-.082a2.116,2.116,0,0,1-1.066-.492.805.805,0,0,1-.246-.82,1.012,1.012,0,0,1,.492-.738A4.037,4.037,0,0,1,496.043-23.461Zm-6.316-18.047a.72.72,0,0,1,.984.328.542.542,0,0,1,.082.492l-.41.328a.831.831,0,0,1-.984-.328Q488.988-41.262,489.727-41.508Zm3.281,3.938a19.162,19.162,0,0,1,4.348.9.639.639,0,0,1,.246.574.709.709,0,0,1-.246.492.709.709,0,0,1-.492.246h-3.691a9.134,9.134,0,0,1-5.988-.246,1.889,1.889,0,0,1-.492-.246,1.094,1.094,0,0,1-.41-.492q0-.41.246-.41a9.629,9.629,0,0,1,1.23-.164,6.084,6.084,0,0,0,1.23-.246,7.177,7.177,0,0,1,3.609-.41Zm10.5,2.051a1.011,1.011,0,0,1-.574-.164.526.526,0,0,1-.328-.492.468.468,0,0,1,.164-.492.8.8,0,0,1,.492-.328,3.19,3.19,0,0,1,1.8-.246,4.542,4.542,0,0,0,1.887-.082,6.183,6.183,0,0,1,1.8-.164,7.831,7.831,0,0,1,1.559.246,6.836,6.836,0,0,0,1.559.246h.574a23.652,23.652,0,0,1,2.543.246,10.913,10.913,0,0,0,4.922-.164,1.313,1.313,0,0,1,.656,0,3,3,0,0,1,1.148.41,2.491,2.491,0,0,1,.984,1.395q-7.465-.164-9.844.082h-1.23Q506.871-35.437,503.508-35.52Zm-.492,3.363a.888.888,0,0,1,.41-.328,1.4,1.4,0,0,1,1.148,0l.41.41a.691.691,0,0,1-.492.9.947.947,0,0,1-1.066,0A.713.713,0,0,1,503.016-32.156Zm6.809,14.848-.328.41q-.738.164-.738-.574,0-.41.328-.41A.585.585,0,0,1,509.824-17.309Zm6.727-.738.082.492q-.41.656-.984.246a.363.363,0,0,1-.082-.574A.624.624,0,0,1,516.551-18.047Zm-.328-4.1a.957.957,0,0,1-.984.656q-.82.082-5.414.246a18.124,18.124,0,0,0-3.281-.082,11.785,11.785,0,0,1-3.117-.328q-.246-.082-.246-.574a.526.526,0,0,1,.328-.492,3.4,3.4,0,0,1,1.8-.082,5.9,5.9,0,0,0,3.609-.574,2.416,2.416,0,0,1,1.8-.246,12.857,12.857,0,0,0,4.348.328,1.113,1.113,0,0,1,.82.328A.9.9,0,0,1,516.223-22.148Zm.082-37.816q.574-.164,2.379-.574a9.013,9.013,0,0,1,4.84,0q.246.082.246.492a.882.882,0,0,1-.164.492,1.291,1.291,0,0,1-.492.328l-4.1.246q-2.133-.164-2.625-.246-.41-.082-.41-.328A.388.388,0,0,1,516.3-59.965Zm.574-18.293-.41.164q-.82-.492.164-.492Zm.164-14.027-.082.492-.41-.328Zm.328,4.43a.929.929,0,0,1,.82-.82,3.245,3.245,0,0,1,1.723.164,1.653,1.653,0,0,1,.492.328l-.164.492a5.658,5.658,0,0,1-1.641.82,1.205,1.205,0,0,1-.9-.246Q517.289-87.527,517.371-87.855Zm1.8-14.52a2.659,2.659,0,0,1,1.8-.246.743.743,0,0,1,.738.656q0,.656-.738.738a3.758,3.758,0,0,1-1.723-.328.791.791,0,0,1-.328-.41A.3.3,0,0,1,519.176-102.375Zm.738-4.676q.164-.492.9-.574a.817.817,0,0,1,.9.574.9.9,0,0,1-.574.9.747.747,0,0,1-.574-.082Q519.832-106.395,519.914-107.051Zm1.969,32.977a.619.619,0,0,1,.9-.328.842.842,0,0,1,.656.738.742.742,0,0,1-.41.656.883.883,0,0,1-.82-.082A.649.649,0,0,1,521.883-74.074Zm.574-4.512q.738.328,0,.492-.492-.328-.41-.328Zm.41-18.7.328.246-.41.164ZM525.9-69.234a1.408,1.408,0,0,1,.41-.41,1.011,1.011,0,0,1,.574-.164H528.2a10.243,10.243,0,0,0,1.066.164q.41.082.492.328a.8.8,0,0,1-.492.984,4.015,4.015,0,0,1-2.953.164A.783.783,0,0,1,525.9-69.234ZM527.3-82.852q-.574.492-.492-.328l.328-.082Zm-.41-5.742a1.128,1.128,0,0,1,.574.246l.082.574a.684.684,0,0,1-1.066.246.661.661,0,0,1-.328-.492Q526.066-88.758,526.887-88.594Zm.082-13.863a.69.69,0,0,1,.574-.082q.656.082.492.738a.677.677,0,0,1-.984.246Q526.313-101.965,526.969-102.457Zm1.23,5.5q-.41.164-.41.082-.656-.328.164-.328Zm0-10.008a.817.817,0,0,1,.9-.574q.82-.164.984.41t-.656.9a.869.869,0,0,1-1.066-.246A.468.468,0,0,1,528.2-106.969ZM530.414-79l-.492.082.164-.41Zm1.23,5.5q.082.656-.82.492-.164,0-1.23-.082-.9,0-.984-.574-.082-.656.82-.492a8.71,8.71,0,0,0,1.23.082Q531.48-73.992,531.645-73.5Zm.246-19.441q.738.082.738.656,0,.738-.82.41a.888.888,0,0,1-.41-.328Q531.152-92.859,531.891-92.941Zm.656-9.27q.164-.492.984-.41-.41,0,.656.082a.883.883,0,0,1,.82.656,1.213,1.213,0,0,1-1.066.328h-.574Q532.383-101.555,532.547-102.211Zm1.23,14.027a.379.379,0,0,1,.41-.246q.738,0,.492.656,0,.082-.41.328Q533.613-87.527,533.777-88.184Zm4.1,4.512q.82.082.9.574.164.574-.738.656-.082,0-1.887.082-1.887-.246-2.3-.328a.29.29,0,0,1-.328-.328q-.082-.41.246-.492a6.957,6.957,0,0,1,1.723-.328Q535.336-83.836,537.879-83.672Zm2.133,10.09q.164.656-.656.656h-1.148a.922.922,0,0,1-1.066-.492q-.328-.82,1.23-.656,1.148.082,1.23.082Q540.012-73.91,540.012-73.582Zm-.164-5a1.792,1.792,0,0,1,1.559-.41q.738.082.9.574.082.246-.246.41a2.3,2.3,0,0,1-1.641.246Q539.684-77.93,539.848-78.586ZM541.9-92.7q.82,0,.164.656l-.41-.246Zm5.906,22.8a.791.791,0,0,1,.41.328.415.415,0,0,1-.164.492,2.766,2.766,0,0,1-1.641.656,31.3,31.3,0,0,0-4.348.246,2.346,2.346,0,0,1-1.23,0,22.292,22.292,0,0,0-4.266-.574.388.388,0,0,1-.41-.328q-.246-.738.492-.82a30.271,30.271,0,0,1,6.234-.164,8.9,8.9,0,0,0,2.461,0A8.111,8.111,0,0,1,547.8-69.891Zm-4.512-27.645a12.062,12.062,0,0,1,4.184.082q.246,0,.41.328.082.164-.246.41a1.817,1.817,0,0,1-.574.082,4.676,4.676,0,0,1-1.23.082q-.328,0-1.23.082a3.2,3.2,0,0,1-1.148-.164.527.527,0,0,1-.41-.41Q543.047-97.453,543.293-97.535Zm5.332,4.676q.246.328.164.492a1.074,1.074,0,0,1-1.148.492,1.123,1.123,0,0,1-1.066-.41.69.69,0,0,1-.082-.574q.164-.656,1.641-.246A1.04,1.04,0,0,1,548.625-92.859Zm1.395-9.516q.82.41-.082.656l-.328-.41Zm-4.676,14.191q0-.246.41-.41h.574l.492.246q.082.656-.656.82Q545.262-87.445,545.344-88.184ZM546.9-73.172l-.492-.246.164-.492.492.246Zm-.41,17.637a2.334,2.334,0,0,1,3.363.246q.328.328.328.492.082.574-.738.738-.082,0-1.23.082a3.4,3.4,0,0,1-1.723-.492Q545.836-55.043,546.492-55.535ZM541.9-59.719q0-.246.328-.41a1.823,1.823,0,0,1,.574-.246,36.856,36.856,0,0,1,6.152.246q.9.082.738.574-.082.246-.492.328-.656.082-3.445.41-3.2-.082-3.281-.082Q541.734-59.062,541.9-59.719ZM535.008-78.5q0-.164.41-.328l.574-.082.41.246q.082.574-.656.656Q534.926-77.93,535.008-78.5Zm-15.586,8.941q.164-.738,1.641-.246l.328.41q.082.738-.656.738a2.182,2.182,0,0,1-.984-.41A.526.526,0,0,1,519.422-69.562Zm-1.641-4.43h.328l-.164.328ZM538.289-63.9q-6.727.164-6.973.246a9.865,9.865,0,0,1-1.8,0q-.656,0-2.789-.164-1.723-.164-2.789-.164h-5.66q-.984,0-.82-.574.164-.492,1.066-.492.9-.082,1.23-.082-.164,0,1.887.164h.574a2.134,2.134,0,0,1,.656.082,14.919,14.919,0,0,0,3.363-.328,13.147,13.147,0,0,1,3.445-.164,48.291,48.291,0,0,0,6.152.328q.984-.082,8.7-.164a5.872,5.872,0,0,1,1.23.164.747.747,0,0,1,.41.41q.246.656-.574.9a2.484,2.484,0,0,1-1.23.164Q543.539-63.574,538.289-63.9Zm.738,9.105a5.046,5.046,0,0,1,1.887-1.148.691.691,0,0,1,.9.492.888.888,0,0,1-.246.82.9.9,0,0,1-.82.328A13.547,13.547,0,0,1,539.027-54.8Zm-4.02-4.1a1.9,1.9,0,0,1-1.066-.164q-1.23-.574-.164-1.395a1.149,1.149,0,0,1,1.969.328Q536.4-59.062,535.008-58.9Zm1.395,9.105a.388.388,0,0,1-.41-.328q-.082-.574.574-.656l.328.328Q537.059-49.793,536.4-49.793Zm-.164-4.348a.852.852,0,0,1-.574-.328q-.41-.574.246-.9a6.012,6.012,0,0,1,1.066-.492,1.139,1.139,0,0,1,1.148.328l.738.738A4.412,4.412,0,0,1,536.238-54.141Zm-7.219-1.23a.869.869,0,0,1,1.066.246.542.542,0,0,1,.082.492q-.082.574-.82.574-.82.082-.984-.492Q528.281-55.043,529.02-55.371Zm3.2,4.43q.246.082.328.492a.709.709,0,0,1-.246.492,2.274,2.274,0,0,1-1.641.738q-.246,0-2.133-.164a31.446,31.446,0,0,1-3.445-.328q-.246-.082-.328-.492a.787.787,0,0,1,.246-.574.8.8,0,0,1,.492-.328A10.061,10.061,0,0,1,532.219-50.941Zm16.57,9.023a1.559,1.559,0,0,1,.9.738.668.668,0,0,1-.164.738,1.182,1.182,0,0,1-.82.41q-5.414,0-6.891.082h-1.23q-2.871-.164-3.035-.164a29.113,29.113,0,0,0-7.465.41,3.13,3.13,0,0,1-2.379-.492q-.656-.41-.246-.984a1.456,1.456,0,0,1,.984-.656,7.718,7.718,0,0,1,2.461.082,9.505,9.505,0,0,0,4.348-.164,6.974,6.974,0,0,1,3.691-.328,42.752,42.752,0,0,1,6.809.246,6.155,6.155,0,0,0,1.477,0A4.518,4.518,0,0,1,548.789-41.918Zm-1.477-3.2a12.194,12.194,0,0,1-4.266.492,40.885,40.885,0,0,0-4.1-.164h-4.02a10.115,10.115,0,0,0-2.543.164,12.168,12.168,0,0,1-3.691-.082q.246.082-4.348-.328-.82-.082-.656-.738.082-.246.492-.328a3.728,3.728,0,0,1,1.23-.328q2.707-.246,4.922-.328h2.543q.246,0,4.512.164,9.352-.246,9.844-.246.656,0,.738.82A.747.747,0,0,1,547.313-45.117Zm3.527-38.309q.246.492-.574.738a7.653,7.653,0,0,1-3.691.082q-.9-.246-.9-.656,0-.574.9-.656.164,0,1.969-.082,1.559.246,1.8.246Q550.758-83.672,550.84-83.426Zm8.121-29.039q0,.082-.164-1.887a1.734,1.734,0,0,0-1.477-1.723q-1.23-.164-5.66-.164H462.9q-.9,0-4.348.164a1.994,1.994,0,0,0-2.051,1.969q-.246,1.559-.246,1.887-.082,3.363-.082,6.234v50.613a108.772,108.772,0,0,0,.738,12.469,16.242,16.242,0,0,0,.41,2.461,55.814,55.814,0,0,0,5.578,14.52A50.978,50.978,0,0,0,487.676-3.855,45.034,45.034,0,0,0,504-.082a78.475,78.475,0,0,0,8.121-.082,43.769,43.769,0,0,0,7.957-1.23,51.55,51.55,0,0,0,16.98-7.711,50.171,50.171,0,0,0,19.77-27.316,26.989,26.989,0,0,0,.656-2.789q.492-2.133.656-2.707a31.524,31.524,0,0,0,.82-7.465q.082-7.3.082-8.121v-51.187Q559.043-111.234,558.961-112.465Zm31.008,84.82q.82.164.656.82a.747.747,0,0,1-.41.41,8.159,8.159,0,0,1-3.035.41q-2.379-.164-2.461-.164a15.922,15.922,0,0,1-4.84-.41.522.522,0,0,1-.41-.328q-.164-.656.656-.656.656,0,5-.246A18.175,18.175,0,0,1,589.969-27.645Zm-1.395-27.973a.619.619,0,0,1,.9-.41.78.78,0,0,1,.492.9.646.646,0,0,1-.9.328Q588.328-55.043,588.574-55.617Zm3.363,33.551q0,.246-.41.41-.082,0-.574.082a1.134,1.134,0,0,1-1.066-.574,1.412,1.412,0,0,1,1.148-.492A.73.73,0,0,1,591.938-22.066Zm.164-37.98h.574q.082,0,.41.41l-.41.328a.931.931,0,0,1-1.066-.164Q591.117-59.965,592.1-60.047Zm-.246-4.512.246.41h-.492ZM592.1-46.02l.574.082q.164.738-.656.328Zm1.641,28.383v.574a1.1,1.1,0,0,1-.984.492.992.992,0,0,1-.984-.492.541.541,0,0,1,0-.574.963.963,0,0,1,.984-.574A.963.963,0,0,1,593.742-17.637Zm.41-33.059.164.41h-.41Zm1.313,9.6a1.549,1.549,0,0,1,.492.082l.246.246a1.215,1.215,0,0,1-1.066,0ZM588.738-7.957a.566.566,0,0,1-.9.082q-.328-.164-.328-.41a.791.791,0,0,1,.328-.41.744.744,0,0,1,.984.246A.357.357,0,0,1,588.738-7.957Zm0-4.676a.41.41,0,0,1,0,.492.668.668,0,0,1-.492.164.69.69,0,0,1-.574-.082q-.41-.164-1.477-.574a2.3,2.3,0,0,1,1.559-.574A1.065,1.065,0,0,1,588.738-12.633Zm-8.121-10.254a2.66,2.66,0,0,1,2.707-.9,10.061,10.061,0,0,1,1.723.574.522.522,0,0,1,.328.41.817.817,0,0,1-.41,1.066,3.392,3.392,0,0,1-1.8.41,6.511,6.511,0,0,1-2.3-.492A.634.634,0,0,1,580.617-22.887Zm-1.066,6.645a2.958,2.958,0,0,1-1.723-.574.908.908,0,0,1-.574-.984q0-.738.82-.738a8.392,8.392,0,0,1,1.23.164,10.938,10.938,0,0,0,4.266-.164,7.024,7.024,0,0,1,3.691,0q.738.164.82.738.246.738-.574.9a2.389,2.389,0,0,0-.574.164,39.155,39.155,0,0,1-5.578.492Zm2.215,8.121a1.083,1.083,0,0,1-1.148-.164q-.246-.164.246-.328l.574-.082q.82-.082.82.41Q582.258-8.2,581.766-8.121Zm-3.691-3.773a.908.908,0,0,1-.984-.574.747.747,0,0,1-.082-.574.81.81,0,0,1,.738-.82,12.522,12.522,0,0,1,3.609.492q.246.082.082.492a.522.522,0,0,1-.41.328,15.045,15.045,0,0,1-1.8.246A6.221,6.221,0,0,0,578.074-11.895Zm-.492-20.426.328.246-.328.246-.328-.246Zm.656-4.594q.082-.164.492-.164a.981.981,0,0,1,.574,0,7.212,7.212,0,0,0,1.313.41,10.486,10.486,0,0,1,1.641.164q.41,0,.41.246.246.656-.574.656a14.609,14.609,0,0,1-3.527-.328Q577.828-36.258,578.238-36.914Zm1.066-4.512-.246.41-.164-.41Zm-.492-46.512a1.244,1.244,0,0,1,.82-.738,1.4,1.4,0,0,1,1.148,0,1.653,1.653,0,0,0,.328.492,1.053,1.053,0,0,1-.656.9q-1.066.656-1.559-.082A.747.747,0,0,1,578.813-87.937Zm.656-4.922.164.41-.41-.082Zm.82-5.086q.738-.082.738.656a.388.388,0,0,1-.328.41q-.738.164-.738-.574A1.653,1.653,0,0,0,580.289-97.945Zm1.148,43.066-.082.41-.328-.164Zm1.148-4.84q.164.574-.656.574-.082,0-1.148.082a1.443,1.443,0,0,1-1.066-.41q-.164-.328.246-.492a1.879,1.879,0,0,1,.984-.246,8.609,8.609,0,0,1,1.148.246Q582.586-59.883,582.586-59.719Zm.82,13.535a.357.357,0,0,1-.082.492.758.758,0,0,1-1.066.246.888.888,0,0,1-.41-.328.747.747,0,0,1,.656-.9A.78.78,0,0,1,583.406-46.184Zm.164,5.168q.082.738-.656.574-.41-.328-.41-.41-.082-.738.738-.492Q583.57-41.262,583.57-41.016Zm1.066-10.09.492.164-.082.41a.542.542,0,0,1-.492.082Q583.816-50.859,584.637-51.105Zm.328-37.16-.41.164q-.492-.574.328-.492Zm1.148,56.52q-.164.738-.738.738t-.656-.738a.58.58,0,0,1,.656-.656A.668.668,0,0,1,586.113-31.746Zm12.059-19.113a.963.963,0,0,1,1.066-.164.935.935,0,0,1,.492.328.3.3,0,0,1-.246.41,1.441,1.441,0,0,1-1.148-.164Q598.008-50.7,598.172-50.859Zm2.051-19.031.328.246a4.967,4.967,0,0,0-.41.328.929.929,0,0,0-.328-.328A1.2,1.2,0,0,1,600.223-69.891Zm.656-8.7q.082,0,.082.41h-.492a.63.63,0,0,0-.082-.246v-.164Q600.879-78.668,600.879-78.586Zm-.41,19.2v-.492l.492.246Zm3.609,3.363a1.33,1.33,0,0,1,1.148.328q.082,0,.328.492,0,.82-1.395.738a1.464,1.464,0,0,1-1.066-.328q-.246-.246.082-.656A2.3,2.3,0,0,1,604.078-56.027Zm-.41-51.352-.082.492-.492-.246ZM604-65.133a.668.668,0,0,1,.492-.164,10.354,10.354,0,0,1,5.332.574v.41a31.7,31.7,0,0,1-4.758.492,6.858,6.858,0,0,0-1.148-.328.526.526,0,0,1-.328-.492A1.094,1.094,0,0,1,604-65.133Zm1.313-37.324q.082,0,.41.41a.63.63,0,0,0-.246.082q-.164.164-.246.164l-.328-.328Zm5.086,42.328.328.492a.751.751,0,0,1-.984.328q-.41-.246-.328-.492A.649.649,0,0,1,610.395-60.129Zm3.035,9.6-.246.246-.082-.328Zm.164-18.375-.246.328-.082-.328Zm.164,13.289.328.328-.41.082Zm1.395,9.352a.661.661,0,0,1,.328.492,1.408,1.408,0,0,1-.41.41,1.818,1.818,0,0,1-.574.082h-2.707q-2.461-.164-2.789-.164a1.128,1.128,0,0,1-.574-.246q-.246-.492.656-.574,3.363-.082,5.5-.164A1.011,1.011,0,0,1,615.152-46.266Zm1.066-37.406.328.328a3.427,3.427,0,0,1-.574.164Q615.152-83.59,616.219-83.672Zm1.148,14.355a.63.63,0,0,1-.082.246.63.63,0,0,0-.082.246l-.492-.246Q616.711-70.055,617.367-69.316Zm-.9,4.43q.164-.164.492,0,.082,0,.246.41l-.41.246Q615.973-64.312,616.465-64.887Zm1.313,5.25a1.007,1.007,0,0,1-1.148.246l-.492-.328a1.5,1.5,0,0,1,1.23-.246Zm.82,18.457v.492l-.574.082q-.984-.328,0-.656A.747.747,0,0,1,618.6-41.18Zm2.789-9.68.492.082q-.164.328-.246.328l-.41-.082Zm.164-4.512a1.1,1.1,0,0,1,.984-.492q.574.082,1.23.164.82.164.492.82a.8.8,0,0,1-.492.328,4.006,4.006,0,0,1-1.148.164Q620.813-54.387,621.551-55.371Zm1.313-4.676q.9.41,0,.656a4.966,4.966,0,0,0-.41-.328Zm.492-4.676a.7.7,0,0,1,1.066-.164.415.415,0,0,1,.164.492q-.164.574-.9.492Q622.863-64.148,623.355-64.723Zm.984-18.7-.41.246-.082-.41Zm-16.816,42.41.246.492-.574.164Q606.457-41.016,607.523-41.016Zm.738,5.25a14.29,14.29,0,0,1-1.723.246,5.8,5.8,0,0,1-1.395-.082q-.492,0-.492-.246-.246-.492.574-.656a8.526,8.526,0,0,1,3.117-.082.552.552,0,0,1,.246.492A.29.29,0,0,1,608.262-35.766ZM627.867-74.32a.471.471,0,0,1,.574.082l.246.492-.492.246Q627.293-73.664,627.867-74.32Zm1.8,13.945q.82-.082.738.574,0,.574-.82.656H629.1q-.9,0-.82-.574,0-.574.82-.574ZM629.59-88.84a1.61,1.61,0,0,1,1.641.082q.082,0,.246.492-.164.574-1.559.492-.82-.082-.738-.656Q629.18-88.758,629.59-88.84Zm5.66,33.387a1.408,1.408,0,0,1,.41.41q.082.656-.738.738a15.029,15.029,0,0,1-1.559.164,3.954,3.954,0,0,1-1.969-.328.734.734,0,0,1-.41-.492.882.882,0,0,1,.164-.492.852.852,0,0,1,.574-.328A4.343,4.343,0,0,1,635.25-55.453Zm-2.215-41.918.164.328h-.41Zm.9,32.156a4.446,4.446,0,0,1,2.379-.246,8.47,8.47,0,0,0,1.559.246,7.952,7.952,0,0,1,1.477.082q.82.164.492.82a.747.747,0,0,1-.41.41h-2.543a4.923,4.923,0,0,1-2.953-.246q-.492-.082-.492-.246Q633.117-64.969,633.938-65.215Zm.328-9.187a1.6,1.6,0,0,1,1.066-.574q.328,0,2.215-.082,3.445.164,3.938.164a.734.734,0,0,1,.492.41q.246.656-.492.9a3.1,3.1,0,0,1-1.148.328,33.672,33.672,0,0,1-5.578.164q-.82-.082-.738-.738A.787.787,0,0,1,634.266-74.4Zm.9-4.676h.574q.82,0,.9.574.082.656-.82.574h-.656q-.82.082-.9-.492Q634.184-79.078,635.168-79.078Zm1.23-13.535a.661.661,0,0,1,.492-.328,9.224,9.224,0,0,0,2.051-.41,5.032,5.032,0,0,1,2.133-.164q.246,0,.41.328a.713.713,0,0,1-.164,1.066,2.07,2.07,0,0,1-.492.246,10.249,10.249,0,0,1-4.184.164q-.082,0-.41-.41Zm4.922-9.762v.41l-.492-.246Zm1.887,19.113a6.925,6.925,0,0,1-3.445.328q-.9-.082-.656-.574,0-.246.492-.246.164,0,1.887-.164,1.313.246,1.641.328l.082.164Q643.289-83.262,643.207-83.262Zm.246,60.7a1.889,1.889,0,0,1,.492-.246q.82-.082.738.656,0,.164-.328.328a.869.869,0,0,1-1.066-.246Q643.125-22.23,643.453-22.559Zm1.559-56.355q.328.164.164.41,0,.082-.41.246l-.492-.246Q644.273-79.242,645.012-78.914Zm.82,65.543-.328.328-.164-.328Zm.492-4.43.41.328q.246.738-.656.656-.41,0-.492-.246Q645.5-17.8,646.324-17.8Zm-.656-55.945a.379.379,0,0,1,.41-.246q.9.082.328.656,0,.082-.574.082A2.285,2.285,0,0,1,645.668-73.746Zm.492-14.109.41-.246v.246a.63.63,0,0,1,.082.246,1.439,1.439,0,0,0-.41.164Zm0,28.547q-.9-.246-.164-.738a.747.747,0,0,1,.574.082l.082.41Zm.656,13.207q.82.328-.082.574,0-.082-.164-.164-.082-.164-.164-.164Zm1.313,37.98a1.291,1.291,0,0,1-.328.492,1.637,1.637,0,0,1-1.148.246q-.82-.164-.9-.738-.164-.574.574-.9a2.346,2.346,0,0,1,1.23,0A.784.784,0,0,1,648.129-8.121Zm2.051-43.23q.82.246.574.9a.849.849,0,0,1-.984.492q-1.23-.164-1.477-.738-.164-.41.492-.574A2.341,2.341,0,0,1,650.18-51.352Zm-.9-32.238a1.2,1.2,0,0,1,.41.246,1.2,1.2,0,0,1-.41.246l-.328-.246Zm.9-9.762q.738-.164.9.492.246.656-.492.82-.738.246-.9-.41A.691.691,0,0,1,650.18-93.352Zm1.8,19.359q-.164.492-.246.492-.328.164-.492,0-.656-.738.246-.82Zm.328,18.047.574.082q1.559.246,1.313.82t-1.641.656a2.41,2.41,0,0,1-.574-.082q-.82-.164-.656-.9Q651.492-56.027,652.313-55.945Zm2.051-27.727q0-.082.492-.164.492.246.492.328.082.246-.246.41a.7.7,0,0,1-.984-.164Q653.953-83.508,654.363-83.672Zm1.477,13.863q.9-.328.9.41-.082.656-.9.738-.9,0-.492-.738A.769.769,0,0,1,655.84-69.809Zm-5.25,24.117v-.41l.41.246Zm-8.941,5.086-.328-.328.41-.164Q642.551-40.77,641.648-40.605Zm-.738,14.027a1.9,1.9,0,0,1-1.066.164q-1.641-.328-1.8-.656a4.773,4.773,0,0,1,1.723-.574,1.539,1.539,0,0,1,1.23.164.4.4,0,0,1,.246.492Q641.238-26.742,640.91-26.578Zm.082,9.434a.658.658,0,0,1-.984-.246q-.164-.246.164-.492a.624.624,0,0,1,.984.164Zm-2.215,9.023q-.082.246-.492.246-.82-.082-.41-.738l.492-.164Q639.188-8.7,638.777-8.121Zm-2.461-4.43q-.82-.246-.738-.82,0-.492.9-.574a2.794,2.794,0,0,1,1.723.328l.41.41a.73.73,0,0,1-.574.9A3.15,3.15,0,0,1,636.316-12.551Zm.574-5H636.4l.246-.492Zm4.184-41.672a3.456,3.456,0,0,1-.574.082q-.246,0-1.969.082-2.051-.082-2.3-.082-.82-.082-.738-.82a.734.734,0,0,1,.41-.492,5.627,5.627,0,0,1,1.723-.328q1.313-.164,1.8-.246a3.534,3.534,0,0,1,1.148,0l.656.164a.784.784,0,0,1,.574.9Q641.813-59.391,641.074-59.227ZM640.992-45.2h-.574q-.82,0-.9-.574t.738-.738h.738q.738.082.82.574Q641.895-45.363,640.992-45.2Zm-1.559,8.531q.164-.9,1.559.082l.164.492-.492.246a1.139,1.139,0,0,1-1.148-.328A.542.542,0,0,1,639.434-36.668Zm1.23,4.1a.754.754,0,0,1,.492.984,1.056,1.056,0,0,1-.984.738,2.245,2.245,0,0,1-1.641-.574.526.526,0,0,1-.328-.492q-.164-.574.656-.738A2.916,2.916,0,0,1,640.664-32.566ZM635.5-36.422a1.2,1.2,0,0,1,.41.246,1.439,1.439,0,0,1-.164.41.954.954,0,0,0-.246-.164.236.236,0,0,1-.164-.082A1.439,1.439,0,0,0,635.5-36.422Zm-3.937-14.437a.585.585,0,0,1,.9-.246l.328.328q-.328.656-.9.328Q631.477-50.613,631.559-50.859Zm.164,4.43a6.007,6.007,0,0,1,2.707.246.8.8,0,0,1,.328.492.388.388,0,0,1-.328.41q-.082,0-4.1.082a.661.661,0,0,1-.492-.328q-.41-.738.492-.82Q630.492-46.348,631.723-46.43Zm-.082,6.07a6.51,6.51,0,0,1-1.395-.082.639.639,0,0,1-.574-.246q-.41-.574.574-.738,1.395-.164,1.8-.164a23.031,23.031,0,0,1,3.035.328l.492.328-.41.328Q634.594-40.523,631.641-40.359Zm.492,8.531h-.492q-.41-.738.41-.41Zm-.41,4.348q.82,0,.984.41.164.656-.738.492-.082,0-.574-.082-1.8-.082-1.312-.574a1.049,1.049,0,0,1,1.066-.246Zm2.379,5.332q-.738.164-2.625.41-1.969.164-1.969-.41-.082-.574.9-.656,3.527-.164,3.609-.164.41.082.41.41Q634.43-22.148,634.1-22.148Zm-.082,4.43.164-.328.164.41Zm-6.234-32.566.164-.328.164.328Zm.328,13.945-.164-.492.41-.164a.334.334,0,0,1,.082.246.236.236,0,0,1,.082.164q0,.082-.164.082A.954.954,0,0,0,628.113-36.34ZM575.941-116.4a47.462,47.462,0,0,0-5,.164,1.894,1.894,0,0,0-1.723,1.641q-.246,1.148-.246,1.23-.082,2.871-.082,4.922V-7.711q0,1.969.082,4.348a10.705,10.705,0,0,1,.164,1.23,2,2,0,0,0,1.559,1.8A12.365,12.365,0,0,0,573.809,0h21.82a23.5,23.5,0,0,0,2.543-.164,4.54,4.54,0,0,0,1.148-.328,1.981,1.981,0,0,0,1.148-1.395A13.474,13.474,0,0,0,600.715-5V-21.246q.082-2.133.164-5a8.392,8.392,0,0,1,.164-1.23,2.206,2.206,0,0,1,1.23-1.312,3.534,3.534,0,0,1,1.148-.328,90.465,90.465,0,0,1,9.434,0,3.021,3.021,0,0,1,2.543,1.559q1.148,1.641,2.3,3.691.82,1.395,10.582,17.719,2.215,3.773,2.953,4.758a2.567,2.567,0,0,0,2.051,1.148Q636.316,0,637.055,0h24.363q1.723,0,3.773-.082a5.871,5.871,0,0,0,1.23-.164q1.477-.328.9-1.969A19.572,19.572,0,0,0,665.6-5.5q-2.051-3.445-14.355-24.2-1.23-2.051-1.559-2.707a12.349,12.349,0,0,0-.82-1.723,1.513,1.513,0,0,1,.328-1.723q.246-.246,2.871-2.379a42.43,42.43,0,0,0,11.4-13.125,40.228,40.228,0,0,0,5-14.027l.492-3.117a25.778,25.778,0,0,0,0-8.7q-.41-2.871-.492-3.117a33.773,33.773,0,0,0-2.051-7.793,42.214,42.214,0,0,0-10.09-15.668,43.039,43.039,0,0,0-21.082-11.566,39.031,39.031,0,0,0-8.039-.984H624.34q-1.887-.082-2.789-.082H575.941Z" transform="translate(-5.344 116.402)" fill="#fff"/>
</svg>
